<svg xmlns="http://www.w3.org/2000/svg" xmlns:xlink="http://www.w3.org/1999/xlink" width="107.13" height="129.276" viewBox="0 0 28.344925 34.204345"><use xlink:href="#a" transform="rotate(180 14.172 17.102)"/><g id="a" fill="none" stroke="#000" stroke-width=".25" stroke-linecap="round" stroke-linejoin="round"><use xlink:href="#b" transform="matrix(-1 0 0 1 28.345 0)"/><g id="b"><path d="M10.684 10.896c2.26-1.756 3.036-5.02 3.074-7.4.006-.346-.556-.316-.658.016-.72 2.32-2.706 4.823-4.433 6.576-.69.7 1.13 1.498 2.017.808" id="d"/><path d="M11.373 14.303c.797-.797 2.15 1.684 1.917 1.916-.233.232-2.714-1.12-1.917-1.917z"/><path d="M14.172 12.015c-1.184 0-.604 3.345 0 3.345" id="c"/><path d="M7.18 9.134c.608.984-.31 1.636-.87 1.04-1.578.46-4.108.032-4.174-2.136-.012-.4.357-.462.56-.1.58 1.043 2.667 1.012 3.16.848-.96-1.405-2.865-1.044-3.62-2.193-.757-1.15-.992-2.69-.663-3.085.328-.394.707-.29.82.394C2.592 5.085 4.66 6.064 4.7 6.527c.064.788 1.214.657.984-.066-.126-.395-.82-1.28-.657-1.74.13-.36.33-.427.657 0 .33.427 1.324.848 1.84 1.873.367.728.046 2.07-.344 2.54z"/><use xlink:href="#c" transform="rotate(90 14.172 17.102)"/><use xlink:href="#d" transform="matrix(0 1 1 0 -2.93 2.93)"/><path d="M0 0h14.172"/></g></g></svg>