<svg xmlns="http://www.w3.org/2000/svg" xmlns:xlink="http://www.w3.org/1999/xlink" width="215.07" height="215.07" viewBox="0 0 56.903898 56.903901"><use xlink:href="#a" transform="matrix(-1 0 0 1 56.904 0)"/><g id="a" transform="translate(-2.117 -2.82)"><use xlink:href="#b" transform="rotate(-90 30.57 31.272)"/><use xlink:href="#b" transform="rotate(-180 30.57 31.272)"/><use xlink:href="#b" transform="rotate(90 30.57 31.272)"/><g id="b" fill="none" stroke="#000" stroke-width=".125" stroke-linecap="round" stroke-linejoin="round"><path d="M30.57 43.763c0-.58-.082-1.162-.246-1.72-.195-.658-.51-1.292-.983-1.79-.47-.5-1.11-.858-1.795-.92-.498-.045-1.004.067-1.45.29-.446.225-.833.558-1.144.95-.62.78-.932 1.765-1.105 2.748-.313 1.78-.22 3.634-.78 5.35-.28.858-.73 1.677-1.398 2.283-.67.606-1.57.982-2.47.908-.698-.057-1.37-.388-1.836-.91-.465-.522-.718-1.23-.683-1.93.03-.58.26-1.158.686-1.554.213-.198.47-.348.75-.427.28-.08.58-.087.86-.013.29.076.56.242.734.484.088.122.15.26.18.407.03.147.026.3-.016.444-.042.15-.126.287-.238.394-.113.107-.254.183-.405.22-.15.034-.31.03-.46-.016-.148-.046-.284-.13-.39-.245"/><path d="M29.883 44.52c.14-.83.065-1.695-.218-2.487-.173-.483-.426-.944-.788-1.307-.362-.363-.84-.624-1.35-.67-.397-.037-.8.057-1.155.24-.353.185-.657.458-.9.774-.485.633-.722 1.42-.875 2.203-.324 1.66-.314 3.372-.68 5.022-.183.825-.462 1.636-.904 2.356S21.96 52 21.208 52.387c-.82.422-1.79.54-2.686.32-.895-.22-1.704-.774-2.227-1.532-.348-.505-.57-1.097-.635-1.707-.065-.61.028-1.237.274-1.8.293-.67.81-1.25 1.468-1.57.657-.32 1.453-.37 2.127-.085.462.196.857.543 1.126.967.27.424.414.924.428 1.427.017.612-.17 1.245-.593 1.688-.21.222-.478.39-.772.476-.295.085-.615.083-.904-.018-.382-.134-.7-.443-.84-.822-.144-.38-.11-.82.09-1.173"/><path d="M29.883 44.52c0-.19-.057-.38-.16-.54-.106-.158-.257-.286-.43-.362-.206-.09-.44-.106-.658-.058-.218.047-.42.158-.587.307-.33.295-.507.73-.577 1.165-.068.436-.04.88-.013 1.322.053.874.092 1.758-.07 2.618-.09.478-.248.953-.534 1.346-.287.393-.716.7-1.2.762-.356.047-.73-.043-1.025-.248M28.522 49.48c-.572 2.615-3.452 3.538-4.133 1.472"/><path d="M28.588 49.59c-.324 5.1-5.69 8.104-8.465 7.936 5.596 1.028 9.768-2.267 9.768-11.232-.02-.188.424-.2.434-.033.108 5.866-.96 7.164-.81 9.76.09 1.55 1.055 2.653 1.055 3.704"/><path d="M29.725 50.674c-.66 3.694-2.577 5.504-2.894 6.094-.482.9-.42 1.203-1.3 2.26 2.55-1.518 3.683-5.077 4.057-7.54M14.134 47.707l14.55-12.878M29.39 35.11l1.18 7.114M30.57 34.103c-.186 0-.37.044-.535.126-.34.17-.587.507-.646.88M28.568 33.274c.173.174.292.403.333.645.054.315-.026.652-.216.91M29.534 32.307c.13.13.285.236.454.31.183.078.382.12.58.12M3.163 58.678c1.185-1.185 1.6-.562 2.718-.906 1.68-.515 1.98-3.792 5.09-6.9M11.3 50.542c.63.63 1.656.53 2.09.543.162.005.14-.486-.03-.447-.482.108-1.254.136-1.773-.383M11.89 49.95c.41.41 1.246.353 1.597.225.016-.655.218-1.28.575-1.613.282-.264.248-.68.072-.855M11.028 51.356c-1.5 1.725-2.885 4.738-2.62 6.308.28 1.657 2.183.996 1.837-.32-.517-1.966-.223-4.247.783-5.988z"/><path d="M11.842 51.293c-1.245 1.724-1.337 4.97-.48 6.004 1.05 1.263 2.293-.035 1.327-1.086-.933-1.013-1.295-2.794-.896-4.71z"/><path d="M12.497 51.42c-.463 1.917.122 3.88 1.565 4.903.887.628 1.676-.86.687-1.182-1.423-.462-2.285-1.82-2.253-3.72z"/><path d="M13.184 51.356c-.176 1.342.7 2.87 2.283 2.955.98.053.9-1.032.032-1.02-.895.01-2.205-.512-2.316-1.934z"/></g></g></svg>