<svg xmlns="http://www.w3.org/2000/svg" xmlns:xlink="http://www.w3.org/1999/xlink" width="183.197" height="246.574" viewBox="0 0 48.470926 65.239253"><use xlink:href="#a" transform="matrix(-1 0 0 1 48.47 0)"/><use xlink:href="#a" transform="matrix(-1 0 0 1 24.235 -32.62)"/><use xlink:href="#a" transform="translate(24.235 -32.62)"/><g id="a" fill="none" stroke="#000" stroke-width=".25" stroke-linecap="round" stroke-linejoin="round"><use xlink:href="#b" transform="rotate(180 12.118 48.93)"/><g id="b"><path d="M24.235 48.028c-1.888-1.393-4.186-3.866-3.767-6.36-2.756 1.132-3.313.77-3.038-2.282-1.82.886-4.754.21-6.705-1.657 4.39 2.044 9.277-5.963 13.51-2.637-2.19 1.892-2.14 5.967 0 5.967M15.61 32.62c0 2.926-4.046 2.264-6.853 3.37-.574.227-1.748.956-2.184 2.096-.226-1.695.457-2.974 1.608-3.726-1.457-.026-2.82-.79-3.385-1.74M.567 36.385c.21 2.502 1.1 7.134 1.1 9.02 0 .838-.735 1.575-1.667 1.575M.6 34.5c.346-.11.66-.32.9-.596.302-.354.474-.818.474-1.284"/></g><g><path d="M23.644 60.74C16.757 41.858 7.737 46.545.594 34.49M.626 37.135c.723 3.132 3.88 7.452 8.072 9.402m7.328 6.446c2.932 1.91 5.675 5.665 7.6 10.38"/><path d="M8.443 46.36c-1.266-.336-2.638.01-3.61.723.625 3.52 3.135 7.832 6.745 9.49 2.746 1.262 5.367-.618 4.783-3.125"/></g></g></svg>