<svg xmlns="http://www.w3.org/2000/svg" width="99.331" height="370.708" viewBox="0 0 26.281208 98.083276"><g fill="none" stroke="#000" stroke-width=".25" stroke-linecap="round" stroke-linejoin="round"><path d="M0 6.572c3.44 0 6.876.922 9.855 2.643 1.17.676 2.272 1.473 3.28 2.375M0 19.712c1.68 0 3.35.672 4.558 1.836 1.21 1.165 1.946 2.808 2.01 4.485.066 1.76-.612 3.537-1.834 4.806C3.512 32.106 1.762 32.85 0 32.85M26.28 19.71c-1.688 0-3.368.68-4.58 1.856-1.212 1.177-1.942 2.836-1.99 4.525-.052 1.753.634 3.515 1.855 4.772 1.222 1.256 2.964 1.992 4.716 1.99M13.138 42.47c-1.72 0-3.43.708-4.647 1.925-1.216 1.216-1.924 2.926-1.924 4.647 0 1.72.708 3.43 1.925 4.647 1.217 1.215 2.927 1.923 4.648 1.923 1.72 0 3.43-.708 4.647-1.924C19 52.47 19.71 50.76 19.71 49.04c0-1.72-.71-3.43-1.925-4.647-1.217-1.217-2.927-1.925-4.647-1.925zM0 65.233c1.68 0 3.35.672 4.558 1.836 1.21 1.164 1.946 2.806 2.01 4.484.066 1.76-.612 3.537-1.834 4.806C3.512 77.628 1.762 78.372 0 78.37M26.28 65.23c-1.75 0-3.493.735-4.715 1.992-1.22 1.257-1.907 3.018-1.856 4.77.048 1.69.778 3.348 1.99 4.525 1.212 1.177 2.892 1.858 4.58 1.857"/><path d="M12.87 11.358c2.046-1.604 4.37-2.85 6.84-3.662 2.118-.7 4.34-1.08 6.57-1.127M0 91.51c2.232 0 4.464-.382 6.57-1.127 2.413-.853 4.658-2.182 6.567-3.888M26.28 91.514c-2.232 0-4.465-.382-6.57-1.126-2.417-.854-4.663-2.185-6.573-3.893M0 9.856c2.253 0 4.504.47 6.57 1.37 1.567.685 3.027 1.616 4.31 2.75-.363.452-.705.92-1.026 1.404-.95 1.433-1.713 2.99-2.26 4.62-1.13-1.366-2.637-2.42-4.31-3.01-1.052-.372-2.168-.564-3.284-.564M26.28 16.425c-2.58 0-5.144 1.062-6.968 2.887-1.825 1.824-2.887 4.39-2.887 6.97 0 3.523-1.172 7.038-3.287 9.857-1.986 2.646-4.792 4.67-7.93 5.72-.508-1.298-1.154-2.542-1.923-3.703C2.785 37.4 2.23 36.68 1.63 36c2.313-.388 4.47-1.632 5.964-3.438 1.447-1.75 2.26-4.01 2.26-6.28 0-4.3 1.77-8.575 4.812-11.616 3.04-3.04 7.315-4.81 11.615-4.81M0 39.384c.783.98 1.443 2.06 1.96 3.205.908 2.017 1.363 4.24 1.32 6.452.002 2.266.815 4.524 2.258 6.27 1.493 1.81 3.65 3.055 5.962 3.445-.597.676-1.147 1.393-1.646 2.144-.75 1.133-1.386 2.344-1.89 3.607-2.07-.694-4-1.81-5.637-3.258-.833-.74-1.59-1.563-2.257-2.455M0 81.657c2.89 0 5.75-1.348 7.593-3.574 1.447-1.75 2.26-4.01 2.262-6.28 0-2.252.47-4.503 1.37-6.566 1.83-4.2 5.498-7.557 9.84-9.01.53 1.353 1.21 2.648 2.024 3.852.27.4.558.793.858 1.174-2.102.907-3.946 2.403-5.267 4.274-1.297 1.837-2.085 4.03-2.255 6.274-.002 3.522-1.174 7.034-3.288 9.852-3.046 4.06-8.06 6.57-13.137 6.573M26.28 81.658c-1.082 0-2.165-.18-3.19-.53-1.713-.587-3.257-1.655-4.41-3.05-.546 1.626-1.306 3.182-2.254 4.613-.323.487-.666.958-1.03 1.414 1.282 1.135 2.744 2.067 4.313 2.753 2.065.9 4.317 1.372 6.57 1.372M26.282 58.698c-.785-.98-1.446-2.06-1.963-3.205-.912-2.017-1.37-4.238-1.33-6.45 0-2.27-.81-4.527-2.255-6.275-1.493-1.808-3.65-3.054-5.963-3.442.6-.68 1.153-1.4 1.654-2.156.748-1.13 1.38-2.337 1.88-3.596 2.074.693 4.006 1.807 5.642 3.256.835.738 1.594 1.563 2.26 2.457M26.28 0H0m0 5.192h26.28M26.28 92.892H0m0 5.19h26.28"/></g></svg>