<svg xmlns="http://www.w3.org/2000/svg" xmlns:xlink="http://www.w3.org/1999/xlink" width="92.365" height="264.72" viewBox="0 0 24.438119 70.040502"><g fill="none" stroke="#000" stroke-width=".25" stroke-linecap="round" stroke-linejoin="round"><path d="M0 18.412c1.578 0 3.146.65 4.26 1.765 1.117 1.115 1.767 2.683 1.767 4.26 0 1.067-.29 2.132-.83 3.052-.54.918-1.328 1.69-2.26 2.21M24.438 18.412c-1.578 0-3.146.648-4.262 1.764-1.116 1.116-1.765 2.684-1.764 4.262 0 1.04.276 2.078.79 2.98.516.904 1.27 1.67 2.164 2.2M0 15.375c1.373 0 2.745.317 3.978.92 1.145.56 2.17 1.364 2.986 2.343M0 9.063c2.064 0 4.128.42 6.027 1.23 1.488.635 2.875 1.506 4.093 2.57M0 6.027c3.16 0 6.314.83 9.063 2.385 1.127.637 2.186 1.393 3.154 2.252"/><path d="M6.027 24.438c-.057-4.187 1.39-8.38 4.016-11.64 3.443-4.276 8.907-6.846 14.395-6.77"/><path d="M24.438 9.063c-3.682 0-7.348 1.377-10.12 3.8C11.03 15.74 9.063 20.07 9.063 24.44M0 31.833c2.192 1.945 3.91 4.422 4.96 7.158.81 2.105 1.23 4.358 1.23 6.612 0 1.577.65 3.144 1.767 4.258 1.115 1.115 2.682 1.763 4.26 1.763 1.576 0 3.143-.648 4.26-1.763 1.114-1.114 1.764-2.68 1.766-4.258 0-1.024-.265-2.048-.765-2.942-.5-.895-1.23-1.658-2.103-2.195m-6.312 0c-.73.448-1.36 1.053-1.84 1.763-.668.99-1.033 2.18-1.033 3.374"/><path d="M-.003 36.27c.8 1.05 1.465 2.2 1.972 3.417.778 1.868 1.183 3.89 1.183 5.915 0 2.373.977 4.73 2.655 6.41 1.677 1.677 4.036 2.654 6.408 2.654 2.648 0 5.27-1.23 6.965-3.264M9.063 24.438c0 2.098-.756 4.188-2.1 5.8-.7.844-1.56 1.558-2.515 2.097-.577.337-1.13.712-1.66 1.122-.236.184-.468.374-.693.572M22.336 57.177c-3.568 3.122-8.633 4.447-13.273 3.474-3.57-.75-6.85-2.818-9.063-5.72"/><path d="M0 59.377c3.33 2.955 7.764 4.637 12.216 4.637 4.454 0 8.888-1.683 12.22-4.64"/><path d="M18.243 45.602c0 2.67.59 5.336 1.713 7.756 1.06 2.284 2.597 4.347 4.48 6.02M24.44 54.93c-.907-1.182-1.64-2.497-2.167-3.89-.656-1.732-.995-3.585-.994-5.438.064-2.48-1.014-4.966-2.868-6.614-.552-.49-1.166-.908-1.787-1.308-.42-.27-.844-.533-1.25-.823-.368-.26-.72-.543-1.057-.844M24.44 36.275c-.43-.564-.898-1.097-1.402-1.594-.832-.82-1.76-1.54-2.74-2.18-.638-.416-1.302-.802-1.887-1.293-.343-.29-.658-.615-.936-.97M24.438 31.833c-.33-.293-.67-.574-1.02-.842-.653-.5-1.34-.96-2.052-1.372M5.252 39.803c.205-.247.423-.482.654-.706.536-.52 1.138-.974 1.786-1.346 1.75-1.01 3.3-2.373 4.527-3.98 2.028-2.657 3.155-5.99 3.155-9.332 0-2.098.756-4.188 2.1-5.8 1.693-2.034 4.316-3.263 6.963-3.263"/><path d="M9.19 40.393c1.708-.985 3.258-2.246 4.57-3.72 2.963-3.334 4.652-7.774 4.652-12.235M-.003 31.83c.252-.224.51-.44.774-.65.687-.544 1.41-1.04 2.168-1.48"/><path d="M12.216 38.213c.478.42.976.817 1.494 1.188.536.386 1.092.743 1.665 1.07"/><path id="a" d="M0 4.403h24.438M0 0h24.438"/><use xlink:href="#a" transform="matrix(1 0 0 -1 0 70.04)"/></g></svg>