<svg xmlns="http://www.w3.org/2000/svg" xmlns:xlink="http://www.w3.org/1999/xlink" width="84.172" height="84.172" viewBox="0 0 22.270438 22.270442"><g fill="none" stroke="#000" stroke-width=".25" stroke-linecap="round" stroke-linejoin="round"><path d="M3.986 2.6c.27.124.53.262.786.41.272.16.537.334.792.52M2.597 7.143c.138-.295.29-.583.458-.862.146-.244.305-.482.473-.713M5.825 9.78c.258.14.523.27.792.39.262.116.528.222.798.318M8.908 8.088c.185-.136.383-.255.59-.354.312-.15.645-.258.986-.32M2.6 18.284c.145-.32.31-.632.492-.932.136-.222.28-.44.437-.648M3.995 19.667c.24.195.484.382.736.56.273.19.553.37.84.538M10.488 14.856c-.094.26-.197.52-.31.773-.12.276-.254.55-.397.816M5.825 12.494c.07.297.17.587.294.866.108.245.237.48.383.706M12.494 16.445c.275-.064.544-.153.804-.264.268-.114.525-.252.768-.413M14.19 13.36c.28.096.554.206.824.33.256.114.507.24.752.377M20.765 16.7c-.142.28-.303.55-.482.81-.187.27-.393.525-.616.765M15.123 19.672c.243.2.493.388.75.57.268.186.543.364.825.53M13.36 8.082c.083-.246.177-.488.28-.726.13-.29.27-.575.428-.852M14.183 8.908c.135.185.254.383.354.59.15.312.258.645.318.986M19.672 7.147c.207-.236.4-.484.58-.742.19-.27.36-.55.517-.838M15.127 2.597c.29.12.573.26.843.42.256.153.5.324.733.51M20.365 1.906c.482-.124.98-.19 1.476-.2.1-.002.198-.002.297 0M0 22.27c.09.002.183.002.274 0 .48-.007.96-.054 1.432-.14M0 0c.12.002.24.002.36 0 .526-.01 1.053-.067 1.57-.17"/></g><use xlink:href="#a" transform="rotate(-90 11.135 11.135)"/><use xlink:href="#a" transform="rotate(-180 11.135 11.135)"/><use xlink:href="#a" transform="rotate(90 11.135 11.135)"/><g id="a" fill="none" stroke="#000" stroke-width=".125" stroke-linecap="round" stroke-linejoin="round"><path d="M0 11.135c.006-1.285.234-2.57.672-3.778C1.338 5.52 2.492 3.86 3.986 2.6M1.704 11.135c.003-1.95.628-3.897 1.764-5.484.58-.812 1.292-1.53 2.098-2.12M5.568 1.502c.86-.496 1.785-.876 2.745-1.13.92-.242 1.87-.368 2.822-.372M7.147 2.6c.665-.312 1.366-.546 2.084-.696.627-.13 1.266-.198 1.905-.2"/><path d="M0 0c.006 1.136.185 2.27.53 3.354.244.77.572 1.515.976 2.215M2.603 3.995c-.312-.666-.547-1.37-.697-2.09C1.776 1.28 1.708.64 1.706 0M5.65 11.135c0-.21.013-.42.038-.63.03-.243.075-.486.137-.724M6.504 8.203c.433-.682 1.018-1.267 1.7-1.7.87-.55 1.9-.85 2.93-.852M7.357 11.135c0-.108.004-.216.014-.323.01-.11.025-.217.044-.324M8.082 8.912c.366-.5.857-.91 1.416-1.178.51-.246 1.072-.375 1.637-.377"/><path d="M8.205 6.503c-.42-.742-.94-1.428-1.54-2.03-1.293-1.294-2.97-2.198-4.76-2.567M.14 1.706H0M1.707.134C3.065.344 4.383.81 5.573 1.5c1.762 1.02 3.234 2.534 4.204 4.325M10.484 7.415c.16.45.18.944.06 1.404-.117.46-.376.883-.732 1.198-.32.284-.715.48-1.135.562-.42.082-.86.05-1.263-.092M8.908 8.088c.038.11.044.233.02.348-.026.115-.084.223-.165.308-.085.09-.196.154-.316.184s-.248.023-.365-.016M3.528 5.567c.493.67 1.075 1.272 1.724 1.79.846.674 1.807 1.202 2.83 1.555M7.415 10.488c-.767-.27-1.504-.627-2.193-1.06-.988-.617-1.877-1.392-2.625-2.285"/></g></svg>