<svg xmlns="http://www.w3.org/2000/svg" xmlns:xlink="http://www.w3.org/1999/xlink" width="91.571" height="185.631" viewBox="0 0 24.228202 49.114776"><g fill="none" stroke="#000" stroke-width=".25" stroke-linecap="round" stroke-linejoin="round"><use xlink:href="#a" transform="matrix(-1 0 0 1 24.228 0)"/><g id="a"><path d="M12.114 25.078C8.078 28.47 4.91 32.885 2.987 37.795 1.577 41.393.835 45.25.807 49.115"/><path d="M0 49.115C.037 43.84 1.383 38.58 3.884 33.938c1.92-3.564 4.514-6.764 7.603-9.38M0 0c.02 5.228 1.336 10.447 3.797 15.06 1.93 3.616 4.554 6.858 7.69 9.497"/><path d="M12.114 24.03c-2.666-2.223-4.96-4.89-6.76-7.86C2.42 11.323.83 5.67.807 0M5.742 28.722c1.063-.107 2.077-.637 2.772-1.45.64-.75 1.003-1.73 1.006-2.715"/><path d="M6.412 21.45c.788 0 1.572.312 2.142.856.61.58.967 1.413.966 2.253M3.638 24.223c0-.742.313-1.48.846-1.994.51-.495 1.218-.78 1.928-.78"/><path d="M3.638 24.222c0 .59.263 1.175.706 1.566.377.333.878.523 1.382.523M5.726 26.31c.496 0 .988-.23 1.305-.61.253-.303.395-.696.395-1.09"/><path d="M6.672 23.814c.194.01.382.096.52.233.147.15.233.357.233.566M6.044 24.396c0-.15.06-.3.166-.407.108-.112.26-.176.416-.176M.386 23.367c0-3.224 1.286-5.832 3.32-8.47m.547-.697c3.06-3.878 6.653-7.937 6.653-14.2"/><path d="M1.192 23.367c0-2.81 1.083-5.216 2.944-7.684m.55-.72C7.822 10.92 11.712 6.597 11.712 0M5.725 27.917c.742-.115 1.445-.475 1.972-1.01.65-.66 1.023-1.585 1.013-2.51M8.71 24.396c-.022-.21-.072-.418-.15-.615-.167-.432-.465-.815-.844-1.084-.38-.27-.84-.425-1.304-.44M6.412 22.255c-.363.01-.723.12-1.03.313-.306.195-.558.474-.72.8-.16.315-.233.674-.21 1.028M4.45 24.396c.028.268.146.526.33.722.242.255.595.4.946.387M6.35 24.41c.115.02.218.097.27.2.053.11.05.24.008.354-.042.113-.12.21-.212.29-.19.162-.44.254-.69.25M10.906 49.115c0-6.34-2.818-11.48-6.937-13.5m-.762-.332c-1.01-.387-2.085-.592-3.208-.592"/><path d="M11.71 49.115c0-7.142-2.94-12.305-7.363-14.31m-.755-.307c-1.12-.403-2.325-.613-3.592-.613"/><path d="M11.71 49.115c0-7.16-.496-10.722-1.82-13.177 1.07-1.683 2.224-6.422 2.224-7.216M0 9.908c0 .692.865 3.312 2.1 5.18-.693 1.172-1.714 3.9-1.714 8.28 0 2.75.87 5.63 1.41 6.836-.45.783-1.405 1.204-1.796 1.927M11.71 0c0 6.565-.678 11.834-2.827 15.237.362.212.773.3 1.308.3.29.815 1.15 2.405 1.924 2.405"/><path d="M1.362 24.16c.186-.03.36-.13.48-.274.12-.144.19-.33.188-.52 0-.203-.083-.404-.224-.55-.14-.147-.34-.237-.542-.246M.82.806c.216-.004.43-.1.576-.258C1.533.4 1.61.2 1.61 0M1.61 49.115c0-.193-.07-.385-.197-.53-.147-.168-.367-.27-.59-.276M10.1 0c0 4.23-1.45 6.21-3.33 6.358-2.056.162-2.053-1.842-1.32-2.278.69-.41 1.183.146 1.188.377"/><path d="M10.1 4.942c-.238.766-1.79 2.495-3.82 2.31-2.38-.216-2.62-2.83-1.446-3.747C6.14 2.483 7.7 3.73 6.93 4.835M10.083.786C9.876.782 9.673.692 9.53.542 9.394.398 9.315.2 9.315 0M10.1 49.115c0-4.657-2.248-6.17-4.244-4.94-.57.35-.915-.428-.48-.682 2.563-1.49 5 .08 5.445 4.09"/><path d="M9.295 49.115c0-.202.08-.402.216-.55.143-.152.346-.246.555-.255M.386 23.367c-.007 1.52.673 3.03 1.816 4.033.968.85 2.252 1.33 3.54 1.322"/><path d="M1.192 23.367c.044 1.365.718 2.697 1.79 3.543.778.613 1.753.97 2.743 1.007"/></g><path d="M11.486 24.557l.628.52M12.114 24.03l.628.527"/></g></svg>