<svg xmlns="http://www.w3.org/2000/svg" xmlns:xlink="http://www.w3.org/1999/xlink" width="169.987" height="169.987" viewBox="0 0 44.97571 44.975696"><use xlink:href="#a" transform="rotate(90 22.488 22.488)"/><use xlink:href="#a" transform="rotate(180 22.488 22.488)"/><use xlink:href="#a" transform="rotate(-90 22.488 22.488)"/><g id="a" fill="none" stroke="#000" stroke-width=".25" stroke-linecap="round" stroke-linejoin="round"><use xlink:href="#b" transform="matrix(0 1 1 0 0 0)"/><g id="b"><path d="M14.353 14.353l-6.747.132" stroke-width=".125"/><path d="M7.606 14.485c.405-.782.723-1.78 1.042-2.778l-.496.23-.595-2.628-.463 2.66-.414-.213c.215.872.492 1.768.926 2.728zM7.606 14.485c-1.205-1.003-1.46-2.183-2.017-3.307l-.1.562-2.944-2.25 1.952 3.176-.63.1c1.166.802 2.234 1.346 3.738 1.72z"/><path d="M7.606 14.485c-.162-.195-3.78 1.733-4.05 2.116l.33.167-2.3 3.737 3.49-2.43.116.61c.64-1.267 1.434-2.8 2.414-4.2z"/><path d="M7.606 14.485c-.52 1.465-1.037 3.373-1.157 4.266l.412-.23.413 3.24.81-3.67.315.198c-.32-.744-.328-2.237-.794-3.803zM7.606 14.485c.525 1.118 1.076 2.377 1.654 3.208l.264-.2 1.82 1.423-1.24-2.315.313-.13c-.97-.998-1.88-1.39-2.81-1.985z"/><path d="M16.377 16.377c-.993.223-1.618-.465-1.042-1.042" id="c"/><use xlink:href="#c" transform="translate(-4.76 -4.76)"/><path id="d" d="M21.474 21.474c-.595.595-1.113-.288-1.892-1.417-.544-.787-1.816-.56-2.65-.134.08 1.347 1.257 1.422.808 1.8-.446.377-.603-.675-1.433-.675-.708 0-1.636.733-2.265 1.44m7.97 0c0-.207.088-.296.13-.338"/><use xlink:href="#d" transform="rotate(-90 22.488 0)"/></g><path d="M16.42 16.42l5.054 5.054m-9.858-9.858l3.72 3.72M1.013 1.013l9.56 9.56" stroke-width=".125"/></g></svg>