<svg xmlns="http://www.w3.org/2000/svg" xmlns:xlink="http://www.w3.org/1999/xlink" width="119.737" height="119.737" viewBox="0 0 31.680396 31.680397"><use xlink:href="#a" transform="matrix(-1 0 0 1 31.68 0)"/><use xlink:href="#a" transform="matrix(-1 0 0 1 15.84 15.84)"/><use xlink:href="#a" transform="translate(15.84 15.84)"/><use xlink:href="#a" transform="matrix(-1 0 0 1 15.84 -15.84)"/><use xlink:href="#a" transform="translate(15.84 -15.84)"/><g id="a" fill="none" stroke="#000" stroke-width=".25" stroke-linecap="round" stroke-linejoin="round"><path d="M14.81 17.64c-.11-7.92-2.387-6.55-2.674-5.527-1.906-2.66 1.254-4.602 2.272-3.842-.804-1.332.037-3.467.764-4.823M1.965 11.096L0 13.06M3.7 9.36L12.57.493M1.965 11.096C1.76 10.286 0 9.434 0 8.296M3.7 9.36c-2.67-2-.94-4.15.088-3.028 1.31-.982.234-2.993-2.15-2.058C3.18.44 6.887 2.53 4.977 4.65c2.614.45 4.073-1.248 3.398-2.746 1.248.29 3.128-.347 4.193-1.41M1.39 14.45L14.45 1.39M3.283 15.336l11.89-11.89"/><path d="M3.283 15.336c1.29-1.29 3.318-1.39 3.942-.864-.066-4.237 3.58-4.303 4.105-2.102-1.083-.33-1.477.98-.657 1.38 1.347.656 3.514 1.74 4.138 3.89"/></g></svg>