<svg xmlns="http://www.w3.org/2000/svg" width="207.645" height="207.645" viewBox="0 0 54.939366 54.939373"><g fill="none" stroke="#000" stroke-width=".5" stroke-linecap="round" stroke-linejoin="round"><path d="M0 0l54.94 54.94M0 13.735L13.735 27.47 0 41.205M54.94 41.205L41.204 27.47 54.94 13.735M41.205 0L27.47 13.735 13.735 0M13.735 54.94L27.47 41.204 41.205 54.94"/><path d="M27.47 41.205H13.735v-27.47M27.47 13.735h13.735v27.47M0 54.94l13.735-13.735M41.205 13.735L54.94 0"/><path d="M34.337 34.337V20.602l6.868-6.867M34.337 20.602l-6.867-6.867M27.47 41.205l-6.868-6.868M13.735 41.205l6.867-6.868V20.602"/><path d="M0 0v54.94M54.94 0v54.94M0 0h54.94M0 54.94h54.94"/></g></svg>