<svg xmlns="http://www.w3.org/2000/svg" xmlns:xlink="http://www.w3.org/1999/xlink" width="178.898" height="178.898" viewBox="0 0 47.333435 47.333441"><use xlink:href="#a" transform="matrix(0,-1,-1,0,47.33341,47.333406)"/><g id="a"><use xlink:href="#b" transform="rotate(-90,23.666698,23.666712)"/><use xlink:href="#b" transform="rotate(-180,23.666708,23.666721)"/><use xlink:href="#b" transform="rotate(90,23.666708,23.666721)"/><g id="b" fill="none" stroke="#000" stroke-width=".25" stroke-linecap="round" stroke-linejoin="round"><path d="M0 0l20.023 16.956M18.35 13.872L15.32 3.518l5.18 9.463M22.01 15.876L23.668 0"/><path d="M20.5 12.98c.118.283.118.61 0 .892-.115.282-.347.514-.63.63-.28.118-.61.118-.89 0-.282-.116-.514-.348-.63-.63M22.01 15.876c0 .434.18.865.486 1.17.306.308.737.486 1.17.486M20.023 16.956c.4.4.635.966.635 1.533s-.234 1.13-.635 1.533M21.974 21.974c.22-.222.487-.4.776-.52.29-.12.603-.182.917-.182"/></g></g></svg>