<svg xmlns="http://www.w3.org/2000/svg" xmlns:xlink="http://www.w3.org/1999/xlink" width="200" height="150" viewBox="0 0 52.916665 39.687509"><g fill="none" stroke="#000" stroke-width=".25" stroke-linecap="round" stroke-linejoin="round"><path id="a" d="M26.458 31.75H3.968V13.23h2.647v5.29h5.29v2.647h-5.29v7.937h19.843m-6.614-7.937v-5.292h-5.292V13.23h5.292V7.937h2.646v13.23zm6.614-13.23h-1.323v15.876h-7.937V18.52h-2.646v5.293H9.26v2.645h17.198M0 39.688h26.458M0 37.042h26.458M0 34.396h26.458M0 5.292h26.458m0-2.646H0M0 0h26.458M0 7.938h17.198v2.645h-5.292v5.292H9.26v-5.292H1.323V31.75H0"/><use xlink:href="#a" transform="matrix(-1 0 0 1 52.917 0)"/></g></svg>