<svg xmlns="http://www.w3.org/2000/svg" xmlns:xlink="http://www.w3.org/1999/xlink" width="93.889" height="187.779" viewBox="0 0 24.841575 49.68314"><g fill="none" stroke="#000" stroke-width=".25" stroke-linecap="round" stroke-linejoin="round"><path d="M0 18.51c1.657 0 3.304.684 4.476 1.855 1.172 1.172 1.854 2.82 1.854 4.477 0 1.657-.682 3.304-1.854 4.476C3.304 30.49 1.656 31.172 0 31.172M24.842 18.51c-1.658 0-3.305.684-4.477 1.855-1.17 1.172-1.854 2.82-1.854 4.477 0 1.657.684 3.304 1.855 4.476 1.172 1.172 2.82 1.854 4.477 1.854M0 15.526c2.32 0 4.63.905 6.33 2.482.338.312.653.65.94 1.01M9.316 24.842c0 2.917-1.463 5.797-3.817 7.52-1.584 1.156-3.54 1.795-5.5 1.795M24.842 40.368c-1.713 0-3.425-.286-5.045-.843-1.962-.674-3.787-1.747-5.33-3.134M9.316 24.842c0-4.342 1.92-8.65 5.15-11.55 2.818-2.53 6.588-3.976 10.376-3.976M24.842 43.353c-2.208 0-4.416-.4-6.484-1.172-2.183-.816-4.21-2.05-5.937-3.613"/><path d="M6.33 24.842c0-4.158 1.45-8.3 4.045-11.55 3.454-4.326 8.93-6.962 14.467-6.962M24.842 34.157c-1.5 0-2.997-.37-4.325-1.065-1.135-.594-2.145-1.426-2.946-2.426M15.526 24.842c0-2.44 1.004-4.863 2.728-6.588 1.725-1.724 4.15-2.728 6.588-2.728"/><path d="M0 9.316c2.173 0 4.346.463 6.33 1.35 1.474.657 2.845 1.547 4.046 2.625M15.526 24.842c0 4.353-1.93 8.67-5.176 11.573C7.535 38.932 3.776 40.368 0 40.368"/><path d="M0 43.353c4.54 0 9.056-1.74 12.42-4.786 3.822-3.458 6.09-8.57 6.09-13.725M12.43 11.123c-1.77-1.604-3.855-2.86-6.1-3.677C4.308 6.71 2.155 6.33 0 6.33"/><g id="a"><path d="M0 0h24.842M24.842 3.106H0M0 4.616h24.842"/></g><use xlink:href="#a" transform="matrix(1 0 0 -1 0 49.683)"/></g></svg>