<svg xmlns="http://www.w3.org/2000/svg" xmlns:xlink="http://www.w3.org/1999/xlink" width="80" height="100" viewBox="0 0 21.166666 26.458334"><g fill="none" stroke="#000" stroke-linecap="round" stroke-linejoin="round"><path d="M2.646 7.938H0M7.937 18.52H5.292m5.29-5.29h2.647M0 13.23h2.646" stroke-width=".25"/><path d="M0 2.646h21.167m-2.646 7.937h2.647V7.938m0 13.23v-7.94H18.52m0 2.647h2.647m-5.292 0l2.646 2.646h2.647m-5.292-5.29H13.23m-2.647 0l2.646-2.647h2.645m0-2.645v7.937h2.646V7.938l-2.645-2.646M0 7.938l2.646-2.646h13.23v2.646H2.645M0 7.938v2.645m2.646 0V7.938m5.29 13.23V18.52m-2.644 0v2.647l2.645 2.646h13.23v-2.646H5.292m0-2.646H2.646m7.937 0H7.937m5.292-5.29v2.645l-2.647 2.646v-5.29m-7.937 2.645h7.937m-5.29-2.646v2.645m0-5.292l2.644 2.646v2.645m-5.29-2.646H5.29v-2.647H0m2.646 2.646v7.937L0 23.813V13.23m0 13.228h21.167M0 0h21.167" stroke-width=".125"/></g></svg>