<svg xmlns="http://www.w3.org/2000/svg" xmlns:xlink="http://www.w3.org/1999/xlink" width="84.499" height="84.499" viewBox="0 0 22.357089 22.357111"><use xlink:href="#a" transform="rotate(-90 11.18 11.18)"/><use xlink:href="#a" transform="rotate(-180 11.18 11.18)"/><use xlink:href="#a" transform="rotate(90 11.18 11.18)"/><g id="a" fill="none" stroke="#000" stroke-width=".125" stroke-linecap="round" stroke-linejoin="round"><ellipse cx="22.357" cy="22.357" rx="3.186" ry="3.186"/><path d="M3.222 22.357c2.255-1.752 5.1-2.73 7.957-2.734 2.866-.004 5.726.975 7.99 2.734"/><path d="M3.018 21.39c2.33-1.757 5.24-2.73 8.158-2.732 2.91 0 5.815.97 8.142 2.718"/><path d="M19.395 19.395C16.955 17.84 14.07 17 11.18 17c-2.893 0-5.78.842-8.218 2.396"/><path d="M17.22 17.22c-1.915-.775-3.978-1.177-6.04-1.177-2.065 0-4.128.402-6.04 1.176M2.962 19.395l-.713.713"/><path d="M21.967 21.967c-.55-.55-1.102-1.102-1.542-1.038-.44.064-.767.746-.768 1.428-.002.682.324 1.366.766 1.43.442.06 1-.496 1.557-1.054" id="b"/><use xlink:href="#b" transform="rotate(90 22.357 22.357)"/><path d="M10.307 12.05c-.614.614-1.227 1.227-1.082 1.74.145.512 1.05.92 1.954.92.903 0 1.807-.41 1.953-.92.145-.512-.47-1.126-1.083-1.74M11.18 11.18l-.404.4"/></g></svg>