<svg xmlns="http://www.w3.org/2000/svg" xmlns:xlink="http://www.w3.org/1999/xlink" width="34.416" height="120.95" viewBox="0 0 9.1059705 32.001409"><use xlink:href="#a" width="100%" height="100%" transform="matrix(1 0 0 -1 0 32)"/><g id="a" stroke-linecap="round" stroke-linejoin="round"><g stroke-width=".125" fill="none" stroke="#000"><path d="M9.106 14.996c-1.43 0-2.85-.573-3.88-1.565-1.08-1.04-1.712-2.528-1.712-4.026 0-.737-.24-1.47-.673-2.066C2.193 6.446 1.104 5.89 0 5.89"/><path d="M0 3.81c1.773 0 3.523.902 4.553 2.346.67.94 1.04 2.092 1.04 3.248 0 1.09.542 2.166 1.416 2.817.6.448 1.347.697 2.096.697M0 12.917c.163 0 .326-.012.488-.035.295-.042.586-.122.86-.238M0 14.996c.133 0 .266-.004.398-.014.2-.014.4-.04.597-.075M6.266 7.338c.29-.398.667-.735 1.095-.98.53-.303 1.137-.466 1.746-.468M5.203 5.347c.45-.41.967-.75 1.523-1.004.745-.34 1.56-.523 2.38-.532"/></g><g fill="none" stroke="#000" stroke-width=".25"><path d="M9.106 16c-1.675 0-3.34-.666-4.553-1.822C3.265 12.95 2.51 11.183 2.51 9.404c-.002-.39-.095-.778-.27-1.125-.208-.414-.532-.767-.924-1.01C.923 7.027.462 6.895 0 6.894M9.106 11.913c-.657 0-1.31-.27-1.773-.736-.464-.464-.735-1.117-.736-1.773 0-1.444-.49-2.884-1.372-4.028C3.998 3.784 2.01 2.806 0 2.806"/><path d="M6.597 9.404c0-.657.272-1.31.736-1.774.464-.464 1.116-.735 1.773-.736M4.553 4.63c.487-.465 1.045-.854 1.65-1.15.9-.44 1.9-.674 2.903-.674M0 11.913c.172 0 .343-.02.51-.054.476-.1.92-.34 1.264-.683M0 16c.15 0 .3-.004.45-.015.167-.01.335-.03.502-.053"/><path d="M2.51 9.404c-.51 1.03-.9 2.12-1.16 3.24C1.09 13.744.96 14.872.95 16M5.24 16.002c0-.19.006-.38.017-.57.01-.21.03-.422.054-.632"/><path d="M1.11 13.915c.622.403 1.28.75 1.966 1.032.7.29 1.43.515 2.172.67"/><path d="M0 0h9.106m0 1.45H0"/></g><g fill="#000"><path d="M0 8.28c.295 0 .587.12.795.328.21.208.33.5.33.796 0 .294-.12.587-.33.795-.208.207-.5.328-.795.328M9.106 8.28c-.295 0-.587.12-.795.328-.208.208-.33.5-.33.796 0 .294.122.587.33.795.21.207.5.328.796.328M5.614 16c-.004-.094-.002-.188.004-.282.005-.067.012-.134.022-.2.19.09.383.172.578.248.222.087.448.165.677.235M1.63 13.656c.04-.4.11-.797.203-1.19.114-.477.267-.946.456-1.4.204.792.544 1.548 1 2.226.433.643.97 1.216 1.583 1.69l-.025.12c-.427-.096-.847-.223-1.256-.38-.696-.27-1.357-.628-1.962-1.066zM1.407 16c-.01-.236-.007-.474.004-.71.01-.215.028-.428.054-.64.494.268 1.006.507 1.53.713.58.228 1.177.416 1.783.562L4.77 16"/></g></g></svg>