<svg xmlns="http://www.w3.org/2000/svg" xmlns:xlink="http://www.w3.org/1999/xlink" width="289.207" height="289.207" viewBox="0 0 76.519262 76.519266"><use xlink:href="#a" transform="matrix(-1,0,0,1,76.51926,7.2912681e-7)"/><g id="a"><use xlink:href="#b" transform="rotate(-90,38.25963,38.259621)"/><use xlink:href="#b" transform="rotate(-180,38.25963,38.259621)"/><use xlink:href="#b" transform="rotate(90,38.25963,38.259621)"/><g id="b" fill="none" stroke="#000" stroke-width=".25" stroke-linecap="round" stroke-linejoin="round"><path d="M38.26 42.574c-4.762 3.825-9.712 9.324-12.186 12.446-3.634 4.585-3.926 10.8-1.686 15.33 2.86 5.777 11.944 6.23 13.127.133.36-1.85-.996-4.203-3.476-4.324-3.638-.178-4.696 4.69-1.066 5.355.44.03.55-.22.234-.515-.897-.6-.862-2-.12-2.508 1.107-.756 2.425-.19 2.788 1.016.495 1.65-1.14 3.8-3.17 4.01-8.986.93-10.745-11.742-5.904-17.93 3.32-4.24 5.356-6.057 11.458-11.798M2.105 74.415c2.34-1.29 5.456-1.925 7.45-3.725 7.104-6.42 2.51-6.238 22.566-25.956.038-.056.026-.198-.054-.28"/><path d="M28.578 49.953c-18.382 17.913-9.59 25.63-4.21 24.368.778-.182.752-.565 0-.888-4.583-1.964-8.7-10.29 4.444-23.105.245-.234-.082-.526-.234-.374zM38.26 69.13c0-1.404-1.427-2.924-1.918-3.134-.164-.14-.234-.35-.07-.562.093-.374 1.38-1.917 1.988-1.917M38.26 62.768c-.11 0-.17-.092-.152-.257-.28-8.02-1.594-9.725-1.602-12.02-.01-2.502 1.754-4.677 1.754-5.472M37.538 62.265c-.193-4.45-1.732-9.475-4.11-11.698-.563-.527-.554-.368-.587.293-.032.662-.48 2.815.26 3.923 1.163 1.74 4.116 4.038 4.256 8.044.01.264.264.132.23-.05z"/><path d="M36.86 63.455c-.596-4.266-4.118-8.086-7.624-8.334-.36-.024-.816-.067-.33.38.43.398.116 1.595 2.364 2.465 2.29.887 4.895 1.902 5.408 5.54.03.215.215.182.182-.05z"/><path d="M36.15 63.704c-1.572-4.58-7.08-5.524-9.56-3.54-.28.224-.53.298-.016.563.513.265 1.518 1.1 2.993.728 2.696-.678 5.424-.248 6.532 2.645.032.166.164.166.13-.115z"/><path d="M35.47 64.646c-2.1-1.885-6.465-2.282-7.838.546-.203.42-.028.49.463.628.53.15 1.718.44 2.464-.28 1.927-1.867 3.588-1.704 4.795-.73.116.15.298.05.116-.164z"/></g></g></svg>