<svg xmlns="http://www.w3.org/2000/svg" xmlns:xlink="http://www.w3.org/1999/xlink" width="285.873" height="285.873" viewBox="0 0 75.637226 75.63723"><use xlink:href="#a" transform="matrix(-1,0,0,1,75.637214,0)"/><g id="a" transform="translate(-4.8926029,32.656559)"><use transform="rotate(-90,42.711214,5.1620481)" xlink:href="#b"/><use transform="rotate(-180,42.71121,5.162049)" xlink:href="#b"/><use transform="rotate(90,42.71121,5.1620488)" xlink:href="#b"/><g id="b" fill="none" stroke="#000" stroke-width=".25" stroke-linecap="round" stroke-linejoin="round"><path d="M5.862 42.01c3.132-1.26 3.587-.81 5.61-2.554 1.7-1.466 3.333-6.412 12.503-15.276.083-.09.075-.25.02-.3M24.668 23.205c.445.42 1.754.537 2.525.304-.07-1.31.526-3.356 1.59-4.42M42.71 12.964c-.055-1.198-.382-2.382-.95-3.44-.384-.718-.88-1.378-1.462-1.95M32.24 16.045c1.17-1.158 2.53-2.12 4.012-2.84 1.554-.753 3.24-1.235 4.957-1.418M33.127 16.934c1.108-1.097 2.405-2.003 3.816-2.667 1.427-.672 2.97-1.095 4.54-1.245M41.21 11.787c-.143-.636-.376-1.252-.69-1.823-.302-.546-.678-1.05-1.115-1.496M41.484 13.022c.14.49.233.992.28 1.498.043.44.05.88.022 1.32M32.24 16.045c-1.11 1.1-2.014 2.404-2.653 3.828-.396.882-.692 1.816-.79 2.778-.097.963.01 1.955.393 2.843.52 1.21 1.564 2.19 2.812 2.61 1.248.42 2.682.267 3.8-.428.544-.338 1.013-.798 1.353-1.34.34-.543.55-1.168.598-1.806.048-.64-.07-1.29-.343-1.87-.275-.578-.708-1.082-1.244-1.432-.616-.402-1.37-.596-2.1-.515-.73.082-1.432.444-1.9 1.01-.44.535-.667 1.247-.593 1.936.073.688.45 1.342 1.022 1.734.26.178.563.304.877.336.315.032.643-.032.91-.204.188-.122.343-.297.44-.5.1-.203.14-.433.12-.657"/><path d="M33.127 16.934c-1.078.982-1.94 2.2-2.51 3.544-.406.96-.665 2-.604 3.043.06 1.043.465 2.086 1.227 2.8.724.678 1.763 1.02 2.743.858.49-.08.96-.28 1.352-.584.393-.304.707-.71.897-1.167.17-.41.24-.865.178-1.304-.062-.44-.26-.863-.575-1.176-.296-.294-.7-.487-1.116-.5-.21-.004-.42.035-.61.12-.19.085-.362.215-.49.38-.177.23-.27.528-.226.815.02.143.076.28.16.4.084.117.2.213.33.273.23.105.51.092.728-.033"/><path d="M41.786 15.84c-.655-.042-.808.21-.804.76.11 13.706-7.406 23.563-10.734 19.934"/><path d="M29.797 35.836c-1.332 4.158 9.122 11.746 11.947-17.558.035-.364.422-.29.423-.04.02 6.833-2.197 14.133-1.634 17.558.35 2.12 1.35 4.107 2.178 5.853M26.97 24.5c-.636 3.94.823 6.542 2.268 6.98 1.865.56 2.098-.932 1.274-1.996-.917-1.184-2.975-1.49-3.54-4.984zM25.224 24.49c-2.61 2.856-4.006 6.82-3.706 10.717.116 1.51.828 3.408 2.152 3.096 1.292-.305 1.036-2.344.626-3.417-1.28-3.355-.883-6.962.928-10.397z"/><path d="M25.957 24.557c-1.656 2.446-1.877 8.5.513 10.49 1.56 1.298 3.08-.764 1.256-2.598-1.922-1.932-2.51-4.54-1.77-7.893zM24.585 24.337c-4.572 4.373-7.57 8.456-9.036 12.83-1.614 4.808 3.627 5.253 3.833.89.27-5.688 1.144-9.195 5.202-13.72z"/></g></g></svg>