<svg xmlns="http://www.w3.org/2000/svg" xmlns:xlink="http://www.w3.org/1999/xlink" width="200" height="200" viewBox="0 0 52.916665 52.91667"><g stroke="#000" stroke-width=".125" fill="none" stroke-linecap="round" stroke-linejoin="round"><g id="a"><path d="M9.922 13.23H6.615V6.614h6.614v3.307h3.306V6.615h6.615v6.614h-3.306v3.306h3.307v6.615h-6.614v-3.306H13.23v3.307H6.614v-6.614h3.307z"/><path d="M16.536 16.536c.433-.432.685-1.04.685-1.653 0-.612-.25-1.22-.684-1.654-.432-.434-1.04-.686-1.653-.686-.612 0-1.22.252-1.654.685-.434.432-.686 1.04-.686 1.653 0 .612.252 1.22.685 1.653.432.433 1.04.685 1.653.685.612 0 1.22-.25 1.653-.684z"/></g><path id="b" d="M9.922 49.61v-6.615h3.307v6.614h9.92M6.616 36.38h6.614v3.308H6.614v9.92m13.23-16.535v6.615h-3.31v-6.615h-9.92m16.536 0v9.922h-6.614v3.307h6.615"/><use xlink:href="#a" transform="translate(26.458 26.458)"/><use xlink:href="#b" transform="translate(26.458 -26.458)"/><path d="M52.917 52.917V33.073M9.922 52.917H49.61M52.916 0v19.844M9.922 0h16.536m0 3.307H6.615V0m3.307 49.61v3.307M6.615 49.61v3.307m0-16.537H3.307v16.537m3.308-19.844H0v19.844M26.458 0h23.15v6.615m-3.306 0V3.307H26.458m26.46 16.537h-3.31m0 3.307h3.31m-16.538 0v3.308h16.537m0 3.308H33.073V23.15M0 29.767h19.844v3.307m3.307 0v-6.615H0M33.073 9.922h-3.307V49.61H23.15m0-3.308h3.308V6.615h6.615M0 0v19.844m0 3.307h3.307V0"/></g></svg>