<svg xmlns="http://www.w3.org/2000/svg" xmlns:xlink="http://www.w3.org/1999/xlink" width="94.074" height="188.149" viewBox="0 0 24.89048 49.780962"><use xlink:href="#a" transform="matrix(-1 0 0 1 24.89 0)"/><use xlink:href="#a" transform="translate(12.445 -24.89)"/><use xlink:href="#a" transform="matrix(-1 0 0 1 12.445 -24.89)"/><g id="a"><use xlink:href="#b" transform="rotate(180 6.223 37.336)"/><g id="b" fill="none" stroke="#000" stroke-width=".25" stroke-linecap="round" stroke-linejoin="round"><path d="M2.074 43.558H0m2.075 1.485H0M10.37 43.558h2.075M10.37 45.043h2.075M12.445 34.94c0 .995-1.566 2.12-1.566 3.962 0 1.087.85 1.6.85 3.818"/><path d="M10.373 42.743l-1.53-1.806c-.273-.77-.218-2.104.012-2.265.257-.18 1.68.38 2.07.7"/><path d="M8.844 40.937c-2.028-.8-3.962.738-3.15 2.828.405 1.044 1.23 1.508.253 2.29 1.16.414 1.817-.493 1.598-1.22-.44-1.462.595-2.372 1.99-1.887.175.06.332.366.332.61M5.48 47.707v2.074m1.485-2.074v2.075M.184 45.043c.268 1.097.84 2.117 1.64 2.915.974.977 2.285 1.614 3.656 1.777M6.965 49.735c1.37-.163 2.682-.8 3.658-1.777.797-.798 1.37-1.818 1.638-2.915M2.075 45.043c.194 0 .387-.08.525-.218.137-.137.217-.33.217-.525 0-.194-.08-.387-.218-.525-.138-.137-.33-.217-.526-.217M10.37 45.043c-.193 0-.386-.08-.524-.217-.137-.138-.217-.33-.217-.525 0-.194.08-.387.216-.524.138-.138.33-.218.525-.218M5.48 47.707c0-.195.08-.388.218-.525.137-.138.33-.218.525-.218.194 0 .387.08.524.218.138.137.218.33.218.525M5.48 48.093c-.943-.152-1.836-.605-2.514-1.278-.5-.496-.882-1.107-1.11-1.772M6.965 48.093c.943-.152 1.836-.605 2.514-1.278.498-.496.88-1.107 1.11-1.772M3.904 39.613c-.69.398-1.27.98-1.667 1.668-.398.69-.61 1.483-.61 2.278M3.09 38.205c-.93.542-1.717 1.332-2.256 2.266-.54.934-.83 2.01-.834 3.088M3.904 39.613l5.45-3.146"/></g></g></svg>