<svg xmlns="http://www.w3.org/2000/svg" xmlns:xlink="http://www.w3.org/1999/xlink" width="93.767" height="93.767" viewBox="0 0 24.809219 24.80922"><g id="c" fill="none" stroke="#000" stroke-width=".25" stroke-linecap="round" stroke-linejoin="round"><path d="M0 9.804c.16 0 .317-.004.475-.012.16-.008.32-.02.48-.035M0 11.75c.11 0 .222 0 .332-.005.114-.003.227-.008.34-.014M3.107 9.296c1.433-.482 2.75-1.3 3.82-2.37C8.74 5.113 9.797 2.567 9.804 0"/><path d="M2.65 11.43c2.126-.488 4.11-1.583 5.656-3.124 2.18-2.172 3.447-5.23 3.445-8.306M.653 12.405c0-3.077 1.267-6.135 3.442-8.31C5.64 2.55 7.625 1.45 9.753.955"/><path d="M2.6 12.405c0-2.567 1.057-5.118 2.872-6.933 1.066-1.066 2.38-1.88 3.81-2.36M11.442 2.648c.185-.018.37-.03.556-.04.135-.005.27-.007.407-.007M11.732.673c.126-.008.253-.013.38-.016.097-.003.195-.004.293-.004"/><g id="b" transform="translate(-10.293 -15.39)"><path d="M16.43 27.793c1.348-.664 2.587-1.553 3.65-2.618 1.068-1.073 1.957-2.324 2.618-3.686"/><path id="a" d="M22.303 27.4c0-.482-.025-1.964-.025-2.432 0-.325-.367-.586-.675-.45-.092-.393.345-.793.598-.733.043-.358.234-.777.498-.856"/><use transform="matrix(0 1 1 0 -5.096 5.096)" xlink:href="#a"/></g><use xlink:href="#b" transform="rotate(180 6.202 6.202)"/></g><use xlink:href="#c" transform="rotate(90 12.405 12.405)"/><use xlink:href="#c" transform="translate(12.405 12.405)"/><use xlink:href="#c" transform="rotate(-90 12.405 12.405)"/></svg>