<svg xmlns="http://www.w3.org/2000/svg" xmlns:xlink="http://www.w3.org/1999/xlink" width="103.954" height="147.67" viewBox="0 0 27.504435 39.07113"><use xlink:href="#a" transform="matrix(-1 0 0 1 27.504 0)"/><g id="a" stroke="#000" stroke-width=".25" fill="none" stroke-linecap="round" stroke-linejoin="round"><use xlink:href="#b" transform="matrix(-1 0 0 1 13.752 0)"/><g id="b"><path d="M0 29.31h3.174m0 1.497H0"/><path d="M1.355 30.807c0 1.445.595 2.88 1.617 3.903 1.022 1.023 2.46 1.618 3.904 1.618"/><path d="M.43 30.807c0 1.687.694 3.365 1.888 4.558 1.193 1.193 2.87 1.888 4.558 1.888M0 28.563h.573V25.69M3.174 30.807c.195 0 .39-.08.528-.22.14-.138.22-.333.22-.528 0-.197-.08-.392-.22-.53-.138-.14-.333-.22-.528-.22"/></g><g><path d="M.573 25.69c.55 1.863 3.588 1.597 4.47-.86 1.106-3.087-.736-8.445.304-12.946.97-4.195 2.963-7.64 7.017-9.137C5.24 3.822 0 13.17 0 22.707M13.267 25.69c-1.034 1.81-4.843 1.43-4.412-2.634C9.34 18.49 13.752 6.586 13.752 0M0 0c0 3.6 2.27 10.34 2.517 11.405M0 0h13.752m0 39.07H0"/></g></g></svg>