<svg xmlns="http://www.w3.org/2000/svg" xmlns:xlink="http://www.w3.org/1999/xlink" width="150.797" height="152.495" viewBox="0 0 39.898461 40.348"><use xlink:href="#a" transform="matrix(1 0 0 -1 19.95 40.348)"/><use xlink:href="#a" transform="matrix(1 0 0 -1 -19.95 40.348)"/><g id="a" fill="none" stroke="#000" stroke-width=".25"><path d="M0 0h39.9M0 4.245h39.9M0 14.805c2.135.003 4.265.667 6.025 1.876 1.42.977 2.597 2.3 3.4 3.826 1.02 1.916 2.572 3.544 4.437 4.652 1.83 1.087 3.958 1.67 6.087 1.67"/><path d="M0 13.52c2.377-.002 4.75.732 6.71 2.074 1.163.797 2.183 1.802 3.003 2.95m1.793 2.82c.817 1.06 1.83 1.967 2.978 2.657 1.64.988 3.55 1.52 5.465 1.524"/><path id="b" d="M0 11.195c.437 0 .792.355.792.792 0 .438-.355.793-.792.793m1.635-1.142a.792.792 0 0 1 0-1.12.792.792 0 0 1 1.12 0 .792.792 0 0 1 0 1.12.792.792 0 0 1-1.12 0zm1.47-1.963a.792.792 0 0 1-.792-.793.792.792 0 0 1 .792-.792.792.792 0 0 1 .793.792.792.792 0 0 1-.793.793zm-.35-2.428a.792.792 0 0 1-1.12 0 .792.792 0 0 1 0-1.12.792.792 0 0 1 1.12 0 .792.792 0 0 1 0 1.12zM0 4.984c.437 0 .792.355.792.793 0 .437-.355.792-.792.792m0 1.136c.65 0 1.175.526 1.175 1.175 0 .65-.526 1.177-1.175 1.177"/><path d="M11.506 21.364c-.58-.672.337-.616 1.13.327 1.055 1.255 3.037 2.427 4.424 2.736 3.756.837 6.168-1.257 6.168-4.265 0-.99-.204-2.124-.484-2.68-.36-.715-1.313-1.38-1.866-1.024-.46.296-.484 1.082-.194 1.482.554.765 1.26.66 1.26 2.223 0 2.253-1.74 3.66-4.515 3.036-1.394-.314-2.82-1.246-3.86-2.384-1.576-1.725-3.22-1.33-3.858-2.266"/><path d="M20.21 15.257c.714-.412 2.454 1.076 4.265.007 2.465-1.457 1.51-4.89-.967-5.335-1.844-.333-2.373.644-3.944.095-1.627-.57-2.475-2.273-3.42-3.605-.603-.848-1.292-1.702-1.837-1.388m5.904 10.225c-.712.412-.293 2.663-2.125 3.696-2.494 1.407-4.99-1.136-4.137-3.504.635-1.765 1.747-1.734 2.057-3.37.32-1.693-.73-3.28-1.413-4.765-.433-.946-.827-1.97-.283-2.284"/><use xlink:href="#b" transform="matrix(-1 0 0 1 39.898 0)"/></g></svg>