<svg xmlns="http://www.w3.org/2000/svg" xmlns:xlink="http://www.w3.org/1999/xlink" width="273" height="155" viewBox="0 0 72.409952 41.010414"><use xlink:href="#a" transform="matrix(1 0 0 -1 -36.205 41.01)"/><use xlink:href="#a" transform="matrix(1 0 0 -1 36.205 41.01)"/><g id="a" fill="none" stroke="#000" stroke-width=".25" stroke-linecap="round" stroke-linejoin="round"><path d="M29.766 20.862c5.02-9.277 10.476-13.328 17.443-13.328m0-1.5c-2.674 0-5.158.573-7.48 1.736m-7.052 5.918c-1.48 1.82-2.886 3.97-4.232 6.46"/><path d="M18.102 0h36.205M18.102 41.01h36.205M18.102 4.05h36.205M18.102 36.96h36.205M32.677 13.69c-.278.213-.61.353-.96.403-.346.05-.706.01-1.032-.118-.327-.127-.62-.34-.843-.61-.222-.272-.374-.602-.434-.947-.11-.624.08-1.278.437-1.802s.87-.927 1.42-1.238c1.756-.99 3.857-1.07 5.823-1.51.52-.115 1.046-.264 1.468-.587.21-.16.392-.365.508-.604.116-.24.164-.514.116-.775-.037-.196-.127-.382-.26-.532-.13-.15-.305-.264-.495-.324.493 0 .984.17 1.373.47.18.14.34.307.457.502.117.195.19.418.197.645.007.248-.066.497-.207.7-.14.204-.347.362-.58.443M64.308 20.236c.478 3.114-.225 6.395-1.937 9.04-1.56 2.41-3.938 4.278-6.644 5.24-2.707.962-5.723 1.017-8.47.174-1.18-.363-2.313-.888-3.353-1.555m-3.227-2.914c-2.477-2.992-3.31-7.266-2.14-10.97.76-2.408 2.318-4.548 4.347-6.05 2.03-1.5 4.518-2.36 7.04-2.485 2.934-.143 5.816.68 8.716 1.152.984.16 1.98.28 2.977.235.996-.044 1.998-.26 2.874-.735.58-.314 1.1-.743 1.474-1.283.375-.54.598-1.193.578-1.85-.018-.555-.22-1.117-.62-1.502-.2-.193-.446-.34-.714-.41-.27-.07-.558-.067-.82.022-.24.08-.454.232-.612.43-.157.196-.256.438-.283.69.066-.21.21-.395.396-.51.186-.116.415-.16.632-.124.28.047.53.228.682.468.152.24.21.534.183.816-.034.356-.2.698-.46.945-.258.246-.606.397-.963.418-.508.03-1.02-.208-1.34-.604-.322-.396-.447-.937-.354-1.438.098-.53.43-1 .866-1.312.438-.312.975-.47 1.512-.493.615-.026 1.234.118 1.78.4.548.28 1.024.694 1.392 1.187.736.987 1.023 2.267.917 3.492-.17 1.965-1.32 3.78-2.902 4.958-1.583 1.178-3.563 1.754-5.534 1.842-1.182.053-2.382-.065-3.504-.444-1.214-.41-2.318-1.115-3.554-1.45-.588-.16-1.2-.232-1.808-.215"/><path d="M62.472 17.205c.807 2.295.952 4.82.41 7.192-.832 3.656-3.366 6.92-6.77 8.494-1.956.904-4.163 1.253-6.303 1.004-2.14-.248-4.207-1.092-5.913-2.407-1.134-.874-2.116-1.96-2.796-3.22-.68-1.26-1.053-2.698-.986-4.13.067-1.414.578-2.82 1.517-3.882.94-1.06 2.32-1.747 3.735-1.755 1.096-.007 2.197.398 2.994 1.148.797.75 1.27 1.847 1.223 2.94-.03.68-.258 1.353-.676 1.888-.418.535-1.03.923-1.7 1.04-.427.074-.874.038-1.284-.104-.41-.142-.784-.39-1.074-.714.086.886.49 1.737 1.118 2.367.518.518 1.18.884 1.884 1.087.704.202 1.45.246 2.178.17 2.122-.223 4.09-1.497 5.235-3.297.584-.92.965-1.97 1.074-3.055.108-1.083-.06-2.198-.508-3.19-.794-1.753-2.5-3.063-4.398-3.38M43.903 33.135c-1.085-.723-2.256-1.318-3.48-1.77-.415-.152-.843-.29-1.285-.307-.22-.008-.445.014-.657.078-.21.064-.41.17-.574.32-.247.227-.402.552-.422.887-.02.335.096.676.315.93.002-.237.112-.472.293-.626.18-.155.43-.227.665-.193.15.022.295.086.414.18.12.095.214.22.275.36.122.277.104.61-.03.883-.124.26-.348.466-.608.59-.26.122-.557.164-.843.138-.52-.048-1.01-.32-1.34-.723-.332-.403-.504-.928-.498-1.45.008-.684.324-1.353.822-1.823.498-.472 1.168-.746 1.85-.8.648-.05 1.308.096 1.874.41"/><path d="M64.652 20.862c-.12-.224-.243-.445-.364-.662m-6.406-8.47c-1.125-1.01-2.286-1.83-3.493-2.466-2.223-1.173-4.6-1.73-7.182-1.73m0-1.5c4.977 0 9.298 1.987 13.14 6.06m3.664 4.736c.668 1.03 1.32 2.136 1.96 3.317"/></g></svg>