<svg xmlns="http://www.w3.org/2000/svg" xmlns:xlink="http://www.w3.org/1999/xlink" width="191.116" height="149.159" viewBox="0 0 50.56607 39.465042"><g fill="none" stroke="#000" stroke-linecap="round" stroke-linejoin="round"><use xlink:href="#a" transform="translate(25.283)"/><g id="a"><g stroke-width=".33"><path d="M14.39 19.733c0 3.028 1.332 6.033 3.575 8.068.8.728 1.71 1.334 2.688 1.794M0 8.838c3.183 0 6.336 1.478 8.373 3.925 1.613 1.938 2.522 4.45 2.52 6.97M12.64 26.604c.77 1.414 1.777 2.697 2.968 3.78 2.618 2.378 6.138 3.738 9.675 3.738M12.64 12.86c1.08-1.986 2.637-3.712 4.5-4.99 2.38-1.634 5.258-2.526 8.143-2.526M14.39 19.733c0-3.2 1.492-6.367 3.96-8.403 1.932-1.595 4.428-2.492 6.933-2.492"/><path d="M0 30.627c2.918 0 5.816-1.232 7.84-3.332 1.936-2.006 3.055-4.777 3.054-7.564M0 3.826h25.283M0 35.64h25.283"/><g id="b"><path d="M0 9.845c.4 0 1.763 1.65 1.616 3.1.594-.824 1.32-.923 1.913-1.22.09.79.524 2.044-.034 3.496-.69 1.802-2.243 3.926-2.408 5.873-.056.67.265 1.12.76.923 1.022-.41.453-2.808 1.88-5.706.914-1.858 2.676-2.588 3.76-3.2.692 1.32.13 2.243-.165 3.068M7.323 16.178c.518 0 1.033.213 1.4.58.366.366.58.88.58 1.4 0 .497-.198.992-.54 1.354-.34.363-.822.59-1.32.62.426.206.792.534 1.043.935.25.4.386.872.387 1.345 0 .438-.115.875-.33 1.256-.217.38-.534.703-.91.927-.376.224-.81.348-1.248.357-.438.008-.877-.1-1.262-.308.36.537.474 1.23.307 1.855-.168.622-.614 1.166-1.193 1.45-.345.17-.734.25-1.118.232-.385-.02-.764-.138-1.09-.34-.327-.204-.6-.492-.788-.828-.186-.337-.286-.72-.285-1.106"/></g><use xlink:href="#b" transform="matrix(-1 0 0 1 25.283 0)"/><path d="M.957 25.908c.023.823-.49 2.067-.957 2.54M25.266 28.465c-.593.824-2.04 1.515-3.306 1.642M24.326 25.677c1.105.94.054 4.18-3.673 3.917"/><path d="M25.283 30.626c-.373 0-.746-.02-1.118-.057-.748-.078-1.488-.234-2.204-.463"/></g><g stroke-width=".125"><path d="M12.642 12.86c.505.934.908 1.923 1.198 2.945.362 1.276.547 2.6.55 3.927M12.64 26.604c-.53-.993-.946-2.046-1.238-3.133-.328-1.217-.5-2.477-.508-3.738M0 0h25.283M0 39.465h25.283"/></g></g><use xlink:href="#c" transform="matrix(1 0 0 -1 25.283 39.465)"/><g id="c"><g stroke-width=".33"><path d="M5.502 6.457c2.563 1.03 4.82.862 5.45.634M7.847 7.688c1.162.09 2.67-.024 3.04-.287M0 5.344c1.072.003 2.143.127 3.187.368.79.183 1.566.432 2.315.745M7.847 7.688c1.066.686 2.04 1.516 2.885 2.46.74.825 1.382 1.737 1.91 2.712M6.423 32.6c2.477-1.3 4.32-1.396 4.863-1.122M8.876 31.058c1.33-.282 2.083-.108 2.537.057M0 34.122c1.19-.004 2.378-.155 3.53-.447 1-.254 1.97-.615 2.893-1.074M8.876 31.058c.718-.564 1.383-1.196 1.982-1.885.685-.79 1.284-1.652 1.783-2.57M17.125 6.465c-.032.225-.12.442-.252.626-.18.25-.444.44-.74.528.01.123-.013.25-.068.36-.055.11-.14.204-.243.27-.117.075-.256.113-.394.107-.138-.005-.274-.053-.384-.137-.17.293-.454.52-.777.62-.263.083-.552.085-.816.005-.097.114-.234.195-.38.228-.148.034-.306.018-.444-.044-.182-.08-.327-.244-.386-.434-.173.067-.364.087-.546.055-.182-.032-.355-.115-.494-.237-.14-.123-.244-.284-.3-.46-.054-.177-.06-.37-.014-.55.05-.195.16-.376.31-.51.153-.134.345-.22.546-.247-.064-.16-.08-.34-.05-.51.03-.17.11-.332.227-.46.153-.17.37-.278.597-.3.227-.022.46.042.645.178.154-.186.36-.33.587-.41.21-.076.442-.098.665-.062.222.035.436.127.614.266.137-.12.31-.197.49-.22.18-.025.366.004.53.082.2.095.363.262.454.462.037-.08.1-.148.176-.192.076-.044.166-.064.254-.056.09.008.178.046.246.106s.116.142.135.23c.088-.02.182-.01.263.027.082.037.152.1.195.18.046.085.062.188.042.283-.02.096-.075.184-.152.244s-.176.09-.274.087c-.098-.005-.194-.045-.265-.112zM14.053 31.34c.005-.263-.1-.526-.283-.715-.184-.19-.444-.3-.707-.305-.225-.004-.45.07-.628.208-.18.137-.31.336-.363.554-.097-.075-.222-.11-.344-.1-.12.013-.237.074-.317.166-.078.093-.12.218-.114.34.006.122.062.24.15.325-.156.16-.256.375-.275.598-.018.225.043.454.17.638.148.212.383.36.638.404.255.042.526-.022.734-.175-.02.237.072.48.244.646.1.095.222.165.355.2.134.034.275.033.408 0 .226.156.502.24.777.236.26-.006.52-.09.732-.238.122.107.28.172.442.182.192.012.388-.055.533-.182.044.1.122.188.22.243.096.055.21.078.32.064.11-.014.216-.064.297-.14.08-.078.135-.18.153-.29.023-.135-.01-.278-.09-.39-.078-.11-.202-.19-.336-.21.027-.09.03-.187.01-.277-.022-.09-.068-.176-.132-.243-.09-.092-.214-.15-.342-.158-.128-.01-.26.032-.36.113.053-.197.052-.408 0-.605-.054-.197-.16-.38-.304-.523-.17-.17-.393-.284-.628-.324-.236-.04-.484-.007-.7.095"/></g><g stroke-width=".125"><path d="M13.52 7.486l.32.525-.422.335-.66-.134.002-.734zm-.76.725l-.52.382m1.178-.247l.033.498m.436-2.408l-.367 1.05m.32.526l1.204.208m.183-.808l-.183.808m-.015-2.874v.542l-.574.603.74.86.656-.06m1.273-.825c0-.076.19-.708.19-.708m-.777.42l.587.288m-1.243-.09l.58-.245.042-.462m-1.475.25l.852.44v.93l.25.33m-2.97-2.067l.754.87.54.07m-2.714.153l1.018.833M14.39 32.24l.35.134-.062.644m1.48.518l.045.586m-.563-1.072l.517.486.61-.137m-1.51-.078l-.03.8m-1.158-1.06l.608-.044.58.304.685-.487m-1.98-.427l.106.655-.352 1.06m-1.076-2.367l-.57-.674m1.326 1.112l.046-.533m-.802.096l.223.82m-1.403-.763c.06 0 1.082-.045 1.082-.045l.9-.107.61-.32.26.138.075.762-.428.168-.564-.214-.533.382-.153.7"/></g></g></g></svg>