<svg xmlns="http://www.w3.org/2000/svg" xmlns:xlink="http://www.w3.org/1999/xlink" width="299.472" height="150.577" viewBox="0 0 79.235399 39.840039"><g fill="none" stroke="#302833" stroke-width=".25" stroke-linecap="round" stroke-linejoin="round"><path d="M0 0h79.235m0 4.002H0M0 39.84h79.235m0-4.002H0M73.208 8.738c-.748-.77-1.605-1.428-2.664-1.607-1.058-.177-2.576.092-3.535.574-1.327.667-2.208 2.115-2.575 3.553-.367 1.438.087 2.91.882 4.164.743 1.173 1.94 2.05 3.287 2.384 1.347.334 2.63.02 3.806-.72 1.054-.66 1.85-1.505 2.183-2.704.333-1.2.585-2.624.025-3.736M0 20.454l2.872.003m27.825-.003l4.192-.02m1.54.043l6.088.004m2.797-.008l9.17-.007m4.648 0l20.164.104M0 19.385l4.03-.162m26.493.162l4.88-.004m1.435.004l4.45-.036m2.056.036l12.026.004m2.476-.004l21.38.004M75.942 30.147c.262-1.134.358-2.34-.067-3.422-.425-1.083-1.356-2.103-2.32-2.756-1.265-.86-2.917-1.13-4.416-.83-1.5.3-2.86 1.224-3.69 2.51-.83 1.284-1.037 2.938-.682 4.426.356 1.487 1.29 2.798 2.615 3.56 1.045.6 2.288.87 3.484.723 1.197-.148 2.27-.815 3.137-1.65M1.094 13.132c.047 1.85.988 3.768 2.33 5.043 1.34 1.276 3.15 1.81 5 1.763 1.852-.047 3.544-.82 4.82-2.162 1.275-1.342 2.1-3.12 2.054-4.972-.046-1.85-.89-3.772-2.232-5.048C11.726 6.48 9.73 5.904 7.88 5.95c-1.85.047-3.588.867-4.864 2.21C1.74 9.5 1.048 11.28 1.094 13.13z"/><path d="M4.653 19.082c-1.162.646-2.243 1.614-2.916 2.76C1.065 22.99.757 24.26.76 25.59c.002 1.33.223 2.768.9 3.912.678 1.143 1.86 2.05 3.024 2.69 1.123.618 2.36.903 3.644.884 1.282-.018 2.417-.348 3.517-1.007 1.1-.66 2.107-1.7 2.72-2.827.614-1.126 1.077-2.312 1.025-3.593-.055-1.334-.776-2.505-1.536-3.602s-1.393-1.99-2.622-2.508"/><path d="M15.336 27.49c1.264.693 2.606.844 4.048.805 1.44-.04 2.926-.334 4.15-1.095 1.525-.948 2.77-2.357 3.4-4.038.632-1.682.686-3.605.17-5.324-.515-1.72-1.592-3.22-3.038-4.284-1.446-1.065-3.242-1.672-5.038-1.664-1.29.007-2.61.322-3.764.898M75.998 10.4c.272.034.677.05.91.05.022-.734-.762-1.325-1.45-1.48-.245-1-.806-1.854-1.54-2.254-.022.69-.35 1.628-.66 2.094.133.49.026.65-.13 1.007.334.11.96.315 1.293.603.2.044.39.02.68.043M74.027 33.012c.378.378.35.72.662.986.666-.423.552-1.08.664-1.457.317-.14.87-.424.87-.424l-.095-.766c.123-.136.765-.563.876-1.008-.4-.09-.946-.174-.946-.174s-.48 1.218-.613 1.374c-.29.022-.795.26-.795.26l-.562.818z"/><path d="M7.75 10.694c-.067 1.067 1.82 1.816 2.42 1.705.622-.646 1.603-1.32 2.648-.986.177-.51-1.013-1.638-1.258-1.794-.09-.755-.087-.876-.198-1.365-.822-.178-2.048.125-2.537.37-.534-.423-1.13-.88-1.42-.923.378.89.506 2.173.345 2.992z"/><path d="M6.98 10.628c.53.014.824.14.862.383M10.093 12.318c.356-.228.604-.106.982-.025M12.52 26.635c-.38.667-1.33.472-1.664.56-.756 0-2.168 1.13-2.213 1.51-.044.377.17 1.81-.474 3.01.526-.2 1.222-.648 1.655-.925.422.29 1.34.405 1.674.34.666-.18 1.675-1.447 1.497-2.203.467-.49.517-.905.784-1.527-.644.155-1.254.4-1.43.445-.268-.11-.597-.61-.864-.632"/><path d="M26.878 17.498c.844-.49 2.233-1.298 2.833-1.965.424.69.002 1.734-.176 2.2 1.6.068 1.65 1.074.85 1.52.467.62.424.885.335 1.174.533.112.417 1.95-1.495 2.238.09.823.386 2.073-.214 2.74-.8-.867-1.364-1.768-2.41-1.812"/><path d="M35.26 19.388c1.088 0 .742-2.125.49-2.6-.642-1.212-1.537-2.53-1.938-4.13-.355-.78-.514-3.227-.603-3.74-.09-.51-.738-3.2-1.204-3.424 1.482.117 3.51 1.765 4.24 3.275.064.128.354-.184.438-.065 1.075 1.52 1.64 3.75 1.357 5.877 1.446-3.8 4.36-5.283 4.848-5.617.49-.333-.494.68.04.17.844-1.245 4.985-2.746 6.497-2.146-1.445.8-2.982 4.125-4.382 6.103-.156.312.522-.15-.234.85-1.224 2-4.706 2.836-6.636 3.76-1.2.575-1.782 1.708-1.16 1.663"/><path d="M34.948 20.456c.933 0 .715 2.005.396 2.82-.445 1.134-2.018 3.116-1.418 5.495.423.78.792 2.2.147 5.78 1.09-.824 2.794-3.398 2.816-3.82.02-.423 1.672-2.186 1.383-4.365 1.022 1.512 2.568 3.038 3.813 3.683.356.133.607.01 1.007.255 1.178 1.09 4.846 2.254 5.557 3.254-.333-1.6-1.397-4-2.642-5.534-.178-.11-.252-.494-.565-.774-4.624-4.136-6.935-4.27-7.674-4.73-.795-.492-2.102-2.09-1.258-2.09"/><path d="M41.343 19.385c1.384-1.427 1.867-.425 2.795-1.16 4.684-3.71 5.147-5.786 7.766-8.03 3.2-2.74 7.193-4.84 9.93-3.896-.602.608-2.496 1.904-3.345 2.915-.615.732-.74 2.35-1.64 4.07 1.824-.062 4.89 1.19 6.086 1.347-1.258.723-3.884 2.333-5.425 2.71-.313.063-.02.42-.51.638-3.868 1.73-10.434-.113-10.685 1.05"/><path d="M43.324 19.404c.22-.206.88-.148 1.95-1.132.785-.69 2.45-.844 3.55-1.127"/><path d="M44.536 18.93l.506.44M45.305 18.304l1.463 1.182M42.193 20.454c1.004-.004 1.796.7 3.37 1.43 2.022.935 3.953 6.46 8.104 8.85.408.252.153-.5.593-.185.44.313 1.708.953 2.243 1.08.534.125 2.823 1.357 4.143 1.986-.63-2.704-3.08-6.983-3.93-7.643-.502-.503-1.712-.557-2.215-.715M45.273 20.44c1.194 1.44 4.946.244 6.978.385 5 .348 9.644 4.004 10.775 4.32-1.07.785-4.71.606-5.662.654M45.242 21.04c.314.313.73.71 1.17.74.723.095 1.503.587 2.07.744"/><path d="M55.134 19.375c.867 0 1.534-.432 1.845-.677.31-.244.6-.2 1.088-.378 1-.044 6.723-3.04 6.58-3.73-.11-.543.898 1.204.402.854-.616-.436-4.086 2.718-6.026 3.143-.8.067-1.756.786-1.11.785M54.09 20.467c.866 0 3.045.632 3.89.588 2.09.422 6.337 3.206 7.503 4.54 0 0 .573-.575.113-.594-.647-.027-3.97-3.51-6.016-3.968-.756-.145-1.734-.567-.31-.568"/><g stroke-width=".125"><path d="M75.52 32.437l-.043-.868.766-.302"/><path d="M8.96 8.783l.354.967.954-.503c-.13.047.27.005.337.14.067.132.43 1.015.43 1.015s.59-.013.857.23"/><path d="M9.693 30.57c.578-.334 1.105-1.144 1.238-1.544.646.066 1.142-.032 1.454-.165"/><path d="M29.5 17.92s-.197.642-.375.82c.4.067.723.347.923.658.2.31.424 1.057.424 1.057s-.87 1.306-1.87 1.795c.445.156.606.4.606.4"/><path d="M38.082 14.674c-.396.913-.777 2.6-1.02 2.96"/><path d="M37.838 25.945c-.978-1.044-1.575-2.627-1.642-4.095"/><path d="M56.898 12.893c-1.092 1.23-3.825 3.286-7.98 4.326"/><path d="M48.92 22.737c2.044.25 4.11 1.887 5.463 2.547"/></g></g></svg>