<svg xmlns="http://www.w3.org/2000/svg" xmlns:xlink="http://www.w3.org/1999/xlink" width="81" height="153.499" viewBox="0 0 21.43125 40.613377"><use xlink:href="#a" transform="matrix(-1 0 0 1 21.43 0)"/><use xlink:href="#a" transform="matrix(1 0 0 -1 10.716 40.613)"/><use xlink:href="#a" transform="matrix(-1 0 0 -1 10.716 40.613)"/><g id="a" fill="none" stroke="#000" stroke-width=".25" stroke-linecap="round"><path d="M0 0h10.715M0 4.034h10.715M0 12.765c.604 1.265 1.886 1.996 3.168 1.996 2.08 0 3.837-1.224 3.837-3.413 0-2.487-2.382-3.862-4.125-4.196C1.726 6.93 0 6.4 0 5.55M0 19.61c.746-.003 1.472.262 2.12.63.65.367 1.235.837 1.832 1.284.993.746 2.034 1.44 3.164 1.954 1.13.515 2.357.848 3.6.848"/></g><g><path d="M0 0v5.55m0 7.216v23.812" id="d" fill="none" stroke="#000" stroke-width=".063" stroke-linecap="round"/><use xlink:href="#d" transform="translate(21.43)"/><use xlink:href="#d" transform="matrix(1 0 0 -1 10.716 40.613)"/></g></svg>