<svg xmlns="http://www.w3.org/2000/svg" xmlns:xlink="http://www.w3.org/1999/xlink" width="209" height="160.283" viewBox="0 0 55.497132 42.408314"><use xlink:href="#a" transform="translate(-55.497)"/><g id="a" fill="none" stroke="#000" stroke-width=".25" stroke-linecap="round" stroke-linejoin="round"><path d="M28.96 21.204c1.21 1.34 2.517 2.592 3.908 3.743 1.988 1.646 4.146 3.086 6.43 4.29m2.93 1.252l.245.098m3.31 1.133c3.168.92 6.466 1.394 9.765 1.403 10.01.028 19.948-4.427 26.586-11.92"/><path d="M27.8 22.528c1.528 1.687 3.213 3.234 5.025 4.613 1.612 1.23 3.325 2.325 5.116 3.274m3.067 1.462c.33.14.664.276 1 .407.27.106.54.208.81.307m.717.254c3.857 1.33 7.934 2.02 12.014 2.03 10.428.027 20.785-4.58 27.748-12.344M83.296 19.877l-1.13-1.195m-1.44-1.38C77.295 14.22 73.3 11.763 69 10.09c-4.28-1.665-8.862-2.555-13.452-2.555-.904 0-1.808.035-2.71.103m-2.804.322c-1.933.3-3.842.75-5.706 1.343-2.232.71-4.398 1.626-6.462 2.733m-1.89 1.082c-1.623.988-3.17 2.1-4.62 3.327-1.262 1.064-2.45 2.213-3.557 3.436"/><path d="M82.134 21.204c-.242-.272-.49-.54-.74-.805-.257-.27-.52-.537-.784-.8m-1.665-1.536c-.758-.654-1.543-1.276-2.353-1.865-.722-.526-1.464-1.024-2.224-1.493m-2.118-1.214c-2.846-1.51-5.893-2.64-9.036-3.347-2.514-.566-5.09-.863-7.666-.863h-.158m-6.52.655c-1.765.347-3.504.826-5.198 1.43-1.853.66-3.653 1.472-5.375 2.422m-1.817 1.072c-1.393.874-2.725 1.847-3.982 2.907-1.257 1.06-2.44 2.208-3.536 3.434M28.962 21.204L27.8 19.878M26.637 21.204l1.162 1.324M37.866 12.033c.245-1.494-1.904-2.16-3.1-.704-.663.803-.772 1.33-1.543 1.82-.67.427-1.682.632-2.686.258 2.102 2.01 4.61.2 5.44-.293"/><path d="M38.297 13.79c.704-.15 1.048 1.222.345 1.907-1.393 1.36-3.55 1.588-3.2 3.737-.958-.77-1.184-3.055 1.038-4.572M27.8 0h55.496M27.8 4.092h55.496M27.8 38.316h55.496M27.8 42.408h55.496M74.368 14.707c-.828-.48-1.296.816-1.973.448-3.65-1.985-10.612-.063-15.526 3.304"/><path d="M72.25 13.493c.506.296.248.59-.02.473-2.658-1.162-9.457 0-14.645 3.69M80.663 19.654c-.517-.557-1.292.025-1.662-.254-1.46-1.1-5.327.768-8.128 3.06"/><path d="M78.945 18.064c.286.225.243.472.29.635-1.332-.56-3.714.28-5.466 1.494M75.357 19.68c.094.327.98 1.73 1.075 1.73M74.867 19.494c-.514.14-3.247-1.192-3.247-1.192M71.853 18.092l-.35.093-.07.28M70.428 22.32l.63.374.07-.257"/><path d="M71.27 22.203c.607-.233 1.308 2.202-.024 2.803-2.413 1.09-3.69-1.915-2.336-2.99 1.03-.816 2.453-.514 2.36.187zM76.478 21.34c.047-.68 1.243-.973 1.776.232.358.813.52 2.313-.49 2.757-.774.338-1.728-.085-2.337-1.052-.59-.94 0-2.22.724-1.94zM71.737 18.606c.654-.094.934-1.26.28-2.032-.815-.96-2.917-.817-3.247.794-.334 1.63 2.172 2.57 2.967 1.238zM80.727 17.303c-1.526-1.49-2.714-7.17.935-9.838"/><path d="M82.167 18.682c-.738-.726-.076-.81-.984-1.747-1.575-1.626-1.942-4.437-1.303-6.656"/><path d="M79.72 14.783c-.168-1.74 1.23-2.926 2.27-2.99.297-.148-.02-.275-.02-.275M79.573 11.878c-.488-1.61-1.78-2.438-2.248-2.692-.106-.318-.02-.594-.02-.594"/><path d="M77.622 9.228c.785-.36.298-2.218-.954-2.29-2.226-.127-2.873 1.986-1.802 3.138 1.02 1.098 3.223.233 2.756-.848zM81.778 11.56c-.403-1.335 1.382-2.4 2.82-1.017.817.785.67 2.903-.785 3.222-1.906.418-2.926-1.23-2.035-2.205zM81.27 7.765c-1.273-.34-.79-2.044 1.017-2.247 1.347-.152 2.604 1.123 1.823 2.8-.645 1.383-3.01.868-2.84-.553zM70.945 31.225c1.838.56.703 1.802-.156 2.15-1.62.653-2.213-.375-1.84-1.153"/><path d="M67.206 31.13c.18-3.36 3.334-3.264 4.05-1.806.09-1.82 2.69-1.976 3.832-.498 1.227 1.587-.592 3.146-1.028 2.835-.436-.31-.84 1.216.093 1.527.66.22-.124-.677.81-.747 2.154-.163 3.583 2.99 1.9 3.738"/><path d="M74.418 32.315c.592.826.576.53 1.09.545.514.016 1.044.405 1.262.64M74.512 31.972c.716.56 2.305-1.93.56-3.582M67.912 29.676c.528-.837 1.806-1.432 2.313-1.476M69.74 33.29c.66.043 1.454-.023 2.137-.486M42.69 29.764c-.806 1.41-2.005 2.59-3.425 3.373-2.1 1.158-4.574 1.42-6.972 1.473-1.717.038-3.496-.033-5.04-.786-.77-.376-1.468-.924-1.957-1.63-.488-.706-.758-1.575-.682-2.43.068-.762.417-1.502.984-2.016.567-.515 1.35-.79 2.113-.715.525.052 1.033.27 1.424.62.39.353.66.842.736 1.362.055.382.007.78-.15 1.133-.155.353-.42.66-.752.856-.332.196-.732.28-1.113.22-.382-.057-.742-.258-.983-.56-.237-.296-.354-.686-.32-1.064.034-.38.22-.74.505-.99-.04.26.027.533.18.746.153.213.392.363.65.408.286.05.59-.028.82-.207.228-.18.376-.455.404-.744.033-.33-.092-.666-.31-.916-.215-.25-.52-.42-.84-.502-.534-.137-1.12-.037-1.59.25-.37.228-.668.567-.867.953-.2.387-.3.82-.32 1.254-.026.636.127 1.274.42 1.84.29.564.718 1.056 1.224 1.44 1.012.77 2.316 1.095 3.587 1.064 1.335-.033 2.643-.44 3.828-1.053 1.185-.614 2.253-1.433 3.25-2.32.597-.535 1.173-1.096 1.806-1.587.677-.527 1.42-.972 2.202-1.322"/><path d="M41.5 27.914c-2.422 1.182-3.683-.133-4.604.333 1.084-1.294.776-1.93 2.554-2.91-.573.04-1.122.127-1.495.28.965-.903 3.314-2.933 4.787-3.078-1.017-.54-1.778-1.402-3.336-1.204.787-1.335 1.74-2.116 2.393-2.365-.707.012-1.07-.13-1.478-.02 1.95-2.764 5.98-2.522 6.947-2.024.058-.914-.28-1.994-.28-2.305.123-.03.28-.072.466 0-.323-1.127-.084-1.862-.396-2.39.552.23 2.276-.497 2.937.25-1.122-1.37-1.373-2.624-.92-4.07.343.34.572.417.87.697-.155-1.39.688-2.23.595-2.883.717.078 2.757 1.457 2.935 2.383.187-.33.495-.626.818-1.05 1.317.623 1.67 3.733.544 5.288.684-1.098 1.345-1.41 1.93-1.838.187.094.202.565.156.872.5-.5 1.864-.725 2.617-.655-.03.42-.544 1.274-.748 1.59.724-.083 1.014.23 1.41.03.446 1.68-1.714 4.076-4.056 5.11.64-.01.72.504.72.504.36.45-1.04 1.067-.213 1.238.838.174-.294-.297.542-.975 1.046-.848 3.436-1.435 4.648-.8.088.384.198 1.02-.654 1.402 2.362-.347 3.427.29 4.257 1.44-.148.23-.346.373-.642.44.28.228.32.496.374.8-1.03.964-2.59 2.008-5.078 1.058 2.087.218 4.216 2.715 4.797 3.987-.422.106-.854.158-1.276.094.714.636 1.204 1.988 1.08 3.145-2.41.28-4.613-.61-5.44-1.713-.17.336-.034.925-.188 1.557-1.598-.176-3.185-1.704-3.242-2.437-.49 1.433-1.68 1.99-1.774 2.364-.31-.28-.436-.24-.53-.55-.133.786-.65 1.49-.872 2.026-.778-.266-1.98-1.242-1.93-2.71-.126.28-.562.654-.5.997-.59-.654-.622-2.025-.654-2.4-.118 2.918-2.313 3.598-2.523 4.64-.06-.59-.155-1.12-.06-1.742-.542 1.714-3.12 2.023-3.963 2.9-.27-.952-.922-2.04-.337-3.456"/><path d="M47.27 16.926c1.213 1.01 2.27 1.516 3.372 1.318.736-.133 1.19 0 1.08.374-.136.462-.728.2-.992-.11M49.574 27.424c-.232-1.625-.1-2.968.407-2.726.706.374-.197.903-.307 1.542M55.856 27.52c.044-1.677-1.227-3.527-1.095-4.078.133-.55.788-.528.788-.132 0 .617-.412.705-.545.947M42.8 22.517c.75-.286 1.762.044 2.247.22.484.177 1.388-.572-.132-.176"/></g></svg>