<svg xmlns="http://www.w3.org/2000/svg" xmlns:xlink="http://www.w3.org/1999/xlink" width="156.271" height="158.392" viewBox="0 0 41.346591 41.90788"><use xlink:href="#b" transform="matrix(1 0 0 -1 0 41.90788)"/><g id="b" fill="none" stroke="#000" stroke-width=".5" stroke-linecap="round"><path d="M0 19.925h41.347M0 0h41.347M0 4.303h41.347M0 10.79c1.74 0 3.148 1.41 3.148 3.148 0 1.74-1.41 3.15-3.148 3.15M41.347 17.087c-1.74 0-3.15-1.41-3.15-3.15 0-1.738 1.41-3.147 3.15-3.147M32.787 10.617c0-1.27 2.292-1.356 2.292.515 0 1.31-1.498 2.946-5.146 2.946-8.185 0-12.956-6.828-19.13-6.828-3.648 0-5.612 2.432-5.612 5.004 0 1.778 1.45 4.63 4.817 4.63h17.258c7.343 0 9.214-3.554 9.214-5.565 0-1.663-1.062-2.995-3.04-2.995-1.31 0-2.198.83-2.198 1.87 0 1.003.655 1.78 1.637 1.78.89 0 1.59-.524 1.59-1.412 0-.39-.223-.868-.77-.868"/></g></svg>