<svg xmlns="http://www.w3.org/2000/svg" xmlns:xlink="http://www.w3.org/1999/xlink" width="141.059" height="152.752" viewBox="0 0 37.32 40.42"><use xlink:href="#a" transform="matrix(-1,0,0,1,37.333,0)"/><use xlink:href="#a" transform="matrix(1,0,0,-1,18.666,40.397)"/><use xlink:href="#a" transform="rotate(180,9.333,20.199)"/><g id="a" fill="none" stroke="#000" stroke-width=".25" stroke-linecap="round" stroke-linejoin="round"><path d="M0 36.364h18.666M0 0h18.666"/><g id="b"><path d="M17.563 25.587c-.09-.373-3.06-2.063-3.5-1.563M10.392 20.81c-.167.29-.224.64-.16.967.067.327.255.628.52.83.208.16.46.257.72.28.26.023.527-.03.76-.15l.106.21c-.388.2-.67.593-.736 1.026-.065.432.088.892.4 1.198.2.197.46.33.735.378.276.048.565.01.82-.107.253-.116.47-.312.613-.553.142-.24.21-.525.19-.804M12.217 22.84l.317-.138"/></g><use xlink:href="#b" transform="matrix(0.5,0.866,0.866,-0.5,-12.826,22.215)"/><g id="c"><path d="M17.65 17.36c.577-.035.77 6.83.465 7.272M16.81 11.873c-.267-.43-.27-1.074-.023-1.567.46-.92 1.88-1.547 1.88-1.73"/><path d="M17.77 17.678c-.206.16-.458.264-.718.292-.26.027-.528-.02-.763-.134-.236-.114-.438-.296-.577-.517-.14-.223-.214-.484-.214-.746 0-.274.082-.548.233-.776.152-.23.372-.41.625-.517-.42-.04-.822-.244-1.106-.556-.283-.313-.445-.733-.445-1.155 0-.5.23-.992.61-1.314.38-.32.903-.466 1.394-.383"/></g><use xlink:href="#c" transform="matrix(0.5,0.866,0.866,-0.5,-12.826,22.215)"/><use xlink:href="#c" transform="rotate(-120,18.666,25.587)"/><path d="M18.666 8.577V4.033M3.935 34.092L0 36.364M18.666 35.14v1.224M10.392 20.81l-1.06-.61" stroke-width=".063"/><use xlink:href="#b" transform="matrix(0.5,-0.866,-0.866,-0.5,31.49,54.546)"/></g></svg>