<svg xmlns="http://www.w3.org/2000/svg" xmlns:xlink="http://www.w3.org/1999/xlink" width="242" height="152" viewBox="0 0 63.947403 40.19085"><g id="b" stroke-width=".25" fill="none" stroke="#000" stroke-linecap="round" stroke-linejoin="round"><path d="M31.043 28.027c-.524 0-1.002.478-1.002 1.002s.48 1 1.003 1c.525.002 1.004-.476 1.004-1 0-.525-.48-1.003-1.004-1.003z"/><path d="M31.978 34.73c-3.53-.012-7.05-1.08-9.99-3.032-3.864-2.567-6.678-6.67-7.68-11.2" id="a"/><use transform="rotate(180 15.99 20.095)" xlink:href="#a"/><circle cx="44.074" cy="16.989" r="1.322"/><circle cx="39.623" cy="14.926" r="1.124"/><path d="M14.902 9.464l.456.41m1.18 1.565l.713-.025m-2.3-1.11l-.34-.503m1.823-1.344l-.34-.876m-.548.76l-.012-.842m.9.958l-.888-.117-.7.457m1.892 1.122l-.362-.632m.093 1.005l-.537-.467m.76 1.017l-.152.596m.585-.62l-.433.023-.222-.55.27-.374.502.01m-2.29.375l.408-.432.573-.047.445-.538.058-.83.97.152m-3.132.024l.574.163.058.667-.292.338"/><path d="M14.95 10.305c-.04.366.113.747.396.982.163.135.364.223.574.25.21.026.427-.008.618-.098-.06.075-.095.17-.1.268-.003.098.025.196.08.277.053.08.133.144.224.178.09.034.193.038.287.012.075-.02.146-.062.202-.117.056-.055.097-.125.12-.2.022-.077.024-.158.007-.235-.02-.077-.056-.15-.11-.208l-.127-.596c.1-.003.198-.04.276-.102.077-.063.133-.152.155-.25.026-.11.008-.232-.05-.33-.06-.1-.155-.175-.265-.207.14-.04.265-.127.356-.24.09-.115.147-.256.158-.402.01-.133-.018-.27-.08-.388-.06-.12-.156-.22-.27-.29.25-.15.416-.433.428-.726.01-.293-.132-.587-.37-.758-.228-.163-.535-.21-.8-.12-.266.087-.484.31-.568.576l-.56-.082c-.126-.236-.364-.41-.627-.454-.263-.045-.545.04-.74.22-.194.18-.3.447-.28.71.02.26.166.51.384.658-.106.005-.212.04-.302.097-.09.058-.166.14-.216.235-.05.095-.076.202-.073.31.002.107.033.213.088.305.083.138.22.24.376.282.155.04.326.02.466-.06zM54.152 6.615c.06.062.106.14.13.224.023.083.026.173.006.258-.036.155-.144.29-.276.38-.132.09-.288.14-.445.172-.52.106-1.077.014-1.535-.253m-.247-.247c-.1-.225-.138-.477-.106-.72.03-.245.13-.48.286-.67.117-.145.268-.267.443-.328.175-.062.376-.06.54.025.094.048.173.12.228.208.056.088.087.19.09.295M53.658 6.584c.33-.015.66-.074.974-.174.207-.066.415-.155.565-.312.075-.08.133-.175.16-.28.03-.105.025-.22-.018-.32-.04-.088-.107-.162-.188-.214-.08-.053-.174-.083-.27-.094-.19-.022-.383.03-.56.105-.45.185-.844.507-1.115.912M24.576 29.245c-6.44-4.35-6.932-14.205-1.82-18.45 3.406-2.828 8.797-3.196 11.373-.753 2.17 2.06 1.476 5.347.306 6.173M0 0h31.978M0 40.19h31.978M0 4.043h31.978M31.978 36.147H0"/><g><path d="M34.436 16.215c-.125.11-.294.17-.46.165-.168-.006-.332-.077-.45-.196-.08-.08-.14-.18-.18-.287-.04-.106-.065-.218-.082-.33-.075-.486-.027-.982-.04-1.473-.005-.246-.027-.493-.086-.73-.06-.24-.157-.47-.306-.667-.223-.292-.56-.496-.92-.558-.363-.063-.748.017-1.055.218-.127-.552-.533-1.032-1.056-1.248-.522-.216-1.148-.164-1.628.137-.267.168-.49.408-.635.69-.145.28-.214.6-.198.915-.273-.4-.712-.682-1.19-.762-.476-.08-.984.04-1.372.33-.385.286-.648.732-.71 1.208-.064.476.073.976.37 1.353"/><path d="M23.42 26.8c-.154-1.79.186-3.118.618-3.457-.803-.4-1.08-.74-1.512-.74.34-1.39 1.265-2.438 2.345-2.84 1.08-.4 4.228-.4 4.69-.43.464-.032 1.547-.806 1.143-1.39-.278-.4-.833-.432-1.39-.154-.554.276-1.573.986-2.776.986-1.697 0-2.623-1.05-3.394-1.08-.74-.926.37-2.56 1.296-2.715"/><circle cx="21.752" cy="19.034" r="1.001"/></g><path d="M34.78 16.585c-.12.117-.19.28-.198.448-.006.167.053.335.162.462.075.086.17.15.273.2.103.05.213.08.324.106.48.112.978.1 1.467.147.245.024.49.064.723.14.234.077.457.192.64.355.277.243.455.593.49.96.036.364-.07.742-.294 1.034.54.167.99.607 1.167 1.144.178.537.08 1.158-.255 1.614-.187.255-.443.46-.734.584-.29.124-.614.17-.927.13.378.3.627.76.673 1.24.045.483-.114.98-.43 1.346-.313.364-.778.593-1.257.62-.48.03-.967-.144-1.322-.468M23.42 26.8c1.774.283 3.122.042 3.492-.364.342.83.66 1.13.63 1.562 1.408-.238 2.522-1.084 3-2.132.48-1.048.71-4.187.774-4.646.065-.46.915-1.484 1.468-1.038.38.307.37.863.053 1.396-.318.534-1.1 1.498-1.188 2.698-.125 1.693.854 2.693.83 3.464.868.806 2.58-.182 2.8-1.094M34.78 16.585c2.45-2.088 1.87-6.733-2.11-8.596"/><path d="M29.58 7.282c6.096-.216 8.423 4.442 13.096 5.517 2.91.668 4.888.08 6.155-1.024 1.314-1.145 1.35-3.46 3.577-4.74M15.876 7.53c-.28-.798.267-1.364.756-1.42.486-.057.872-.197 1.25-.587 1.198-1.238 4.227.68 3.024 3.55"/><path d="M17.68 19.69c-.85-5.893 1.898-8.544 2.824-11.19.537-1.53-.586-3.378-2.16-3.023"/><path d="M19.964 10.722c2.84-3.98 7.618-5.197 12.25-4.134 5.342 1.225 7.468 5.43 12.066 5.8 2.864.23 4.54-1.192 4.505-2.53-.03-1.174-1.292-1.997-2.26-1.366-.608.395-.653 1.793.725 1.827.14 1.68-3.393 1.615-3.197-.938-2.463.89-3.053-.95-1.942-2.007-2.382.594-4.1-.72-4.494-1.833 2.073 1.964 4.56-.246 7.572-.284 3.206-.04 4.806 2.017 4.43 4.678M31.978 31.27c-1.42-.006-2.837-.217-4.196-.626-1.12-.337-2.198-.808-3.206-1.4M31.978 31.27c2.588-.006 5.17-.712 7.402-2.025 3.484-2.05 6.048-5.602 6.896-9.555M49.618 9.936c.365-.753.898-1.558 1.274-1.932"/></g><use xlink:href="#b" transform="matrix(1 0 0 -1 31.978 40.19)"/><use xlink:href="#b" transform="matrix(1 0 0 -1 -31.978 40.19)"/></svg>