<svg xmlns="http://www.w3.org/2000/svg" xmlns:xlink="http://www.w3.org/1999/xlink" width="125.059" height="160.302" viewBox="0 0 33.088649 42.413243"><use xlink:href="#a" transform="matrix(1 0 0 -1 -16.544 58.958)"/><use xlink:href="#a" transform="matrix(1 0 0 -1 16.544 58.958)"/><use xlink:href="#a" transform="translate(-16.544 -16.544)"/><use xlink:href="#a" transform="translate(16.544 -16.544)"/><use xlink:href="#a" transform="matrix(1 0 0 -1 0 42.413)"/><g stroke-linecap="round" stroke-linejoin="round"><g id="a"><path d="M28.725 21.207c-2.197.565-3.87 5.036-6.808 5.036-1.378 0-2.32.008-3.563-1.278 2.517 3.22.582 7.78-2.325 8.484-.216-1.93-3.142-2.647-4.067-4.755-.968-2.206-.138-3.948.81-4.806m.68.193c-1.47-1.117-5.294-2.547-9.457-1.89" fill="none" stroke="#000" stroke-width=".25"/><path d="M9.744 21.207c3.703 0 5.823 2.694 6.616 6.12-.526-3.097-1.352-4.533-2.7-5.707 1.884-.24 4.06-.413 7.7-.413" fill="#000" stroke-width=".33"/></g><path d="M2.836 21.207h10.872" fill="none" stroke="#000" stroke-width=".125"/></g><path d="M30.253 21.207h2.836M2.836 21.207H0" fill="none" stroke="#000" stroke-width=".25" stroke-linecap="round" stroke-linejoin="round"/><g fill="none" stroke="#000" stroke-width=".25" stroke-linecap="round" stroke-linejoin="round"><path d="M0 0h33.09M0 42.413h33.09M16.544 7.498l13.71 13.71-13.71 13.707"/><path d="M0 24.043l19.38-19.38L33.09 18.37M19.38 37.75L0 18.37"/><path d="M33.09 24.043L19.38 37.75m-5.672 0L0 24.044m0-5.672L13.708 4.663M0 4.662h33.09M0 37.75h33.09"/></g></svg>