<svg xmlns="http://www.w3.org/2000/svg" xmlns:xlink="http://www.w3.org/1999/xlink" width="110.309" height="137.179" viewBox="0 0 29.185829 36.295202"><use xlink:href="#a" transform="matrix(1 0 0 -1 0 36.295)"/><g id="a" fill="none" stroke="#000" stroke-linecap="round" stroke-linejoin="round"><g stroke-width=".125"><path d="M3.187 18.148c.08-1.708 1.033-3.352 2.476-4.27 1.462-.928 3.265-1.09 4.99-1.26 3.32-.323 6.654-.76 9.827-1.79 1.74-.566 3.476-1.345 4.714-2.693.71-.773 1.232-1.715 1.512-2.726"/><use xlink:href="#b" transform="translate(-29.186)"/></g><g stroke-width=".25"><path d="M0 0h29.186M0 17.09c.414-2.576 2.117-4.91 4.442-6.093 2.243-1.14 4.86-1.205 7.375-1.223 3.534-.026 7.146-.02 10.49-1.165 1.45-.5 2.876-1.25 3.804-2.474.403-.53.7-1.136.873-1.777"/><path d="M12.015 13.904c1.716-.316 3.42-.703 5.104-1.16 2.155-.582 4.31-1.29 6.19-2.495 1.42-.91 2.7-2.144 3.3-3.72.265-.69.39-1.432.37-2.17"/><path d="M4.742 18.148c0-3.4 3.88-4.337 7.827-4.237 8.536.22 15.145 2.414 19.092 4.24M0 3.554h29.186" id="b"/></g></g></svg>