<svg xmlns="http://www.w3.org/2000/svg" xmlns:xlink="http://www.w3.org/1999/xlink" width="151.098" height="148.621" viewBox="0 0 39.977973 39.322589"><use xlink:href="#a" transform="matrix(-1 0 0 1 39.978 0)"/><g id="a" fill="none" stroke-width=".25" stroke-linecap="round" stroke-linejoin="round" stroke="#000"><path d="M15 18.116c-1.787-1.405-2.933-3.595-3.07-5.865-.135-2.268.743-4.58 2.35-6.187 1.495-1.495 3.595-2.365 5.71-2.365M15 18.116c-1.888-.838-4.112-.886-6.034-.13-1.923.755-3.52 2.304-4.332 4.203-.936 2.188-.797 4.815.396 6.875 1.193 2.06 3.42 3.494 5.79 3.694 1.79.15 3.658-.405 4.973-1.627.718-.668 1.267-1.53 1.497-2.484.23-.955.13-1.997-.344-2.856-.287-.523-.708-.973-1.216-1.286-.507-.313-1.1-.488-1.697-.49-.596 0-1.193.172-1.69.5-.5.33-.894.813-1.108 1.37-.15.393-.212.82-.167 1.24.044.42.194.828.438 1.17.245.344.583.62.972.784.388.163.825.212 1.238.13.375-.076.73-.258 1.007-.52.278-.264.48-.606.577-.977"/><path d="M13.903 26.543c.19-.083.408-.103.61-.054.202.048.387.164.52.324.202.248.27.582.267.9-.004.51-.17 1.014-.448 1.44-.28.423-.673.77-1.12 1.015-.89.49-1.97.562-2.967.36-1.525-.31-2.916-1.265-3.718-2.6-.8-1.333-.99-3.028-.462-4.493.293-.815.797-1.55 1.437-2.134.64-.584 1.415-1.016 2.242-1.274 1.654-.516 3.49-.317 5.067.404 1.5.686 2.784 1.837 3.63 3.253M19.99 28.234c-.09 1.86-.867 3.68-2.148 5.03-1.447 1.526-3.526 2.43-5.628 2.45M6.39 17.376c.188-1.515.662-2.993 1.39-4.336.68-1.257 1.58-2.394 2.647-3.343-.31 1.025-.4 2.115-.265 3.177.12.937.412 1.85.86 2.682-.89-.038-1.79.122-2.614.463-.754.312-1.445.776-2.02 1.356zM12.214 35.88h7.775M19.99 5.526c-.283 0-.563.116-.762.315-.2.2-.315.48-.315.762 0 .28.116.56.315.76M19.137 23.59c-.387-3.06-2.876-4.832-2.876-8.087 0-2.458 2.79-6.272 3.123-7.982"/></g></svg>