<svg xmlns="http://www.w3.org/2000/svg" xmlns:xlink="http://www.w3.org/1999/xlink" width="110.309" height="137.179" viewBox="0 0 29.185829 36.295202"><use xlink:href="#c" transform="matrix(1 0 0 -1 0 36.295202)"/><g id="c" fill="none" stroke="#000" stroke-linecap="round" stroke-linejoin="round"><path d="M3.187 18.148c.08-1.708 1.033-3.352 2.476-4.27 1.462-.928 3.265-1.09 4.99-1.26 3.32-.323 6.654-.76 9.827-1.79 1.74-.566 3.476-1.345 4.714-2.693.71-.773 1.232-1.715 1.512-2.726" stroke-width=".125"/><path d="M4.742 18.148c0-3.4 3.88-4.337 7.827-4.237 8.537.218 15.146 2.413 19.093 4.238M0 3.555h29.186" stroke-width=".25"/><g stroke-width=".5"><path d="M0 0h29.186M12.015 13.904c6.847.267 12.46 1.47 17.17 3.185"/><path d="M0 17.09c.414-2.576 2.117-4.91 4.442-6.093 2.243-1.14 4.86-1.205 7.375-1.223 3.534-.026 7.146-.02 10.49-1.165 1.45-.5 2.876-1.25 3.804-2.473.402-.53.7-1.136.872-1.777"/><path d="M12.015 13.904c1.716-.316 3.42-.703 5.104-1.16 2.156-.582 4.31-1.29 6.192-2.495 1.42-.91 2.7-2.143 3.3-3.718.264-.69.39-1.433.37-2.172"/></g></g></svg>