<svg xmlns="http://www.w3.org/2000/svg" xmlns:xlink="http://www.w3.org/1999/xlink" width="315" height="157.5" viewBox="0 0 83.343379 41.671697"><g fill="none" stroke="#000" stroke-width=".25" stroke-linecap="round" stroke-linejoin="round"><use xlink:href="#a" transform="matrix(1 0 0 -1 0 41.672)"/><use xlink:href="#a" transform="matrix(-1 0 0 1 83.343 0)"/><use xlink:href="#a" transform="rotate(-180 41.672 20.836)"/><g id="a"><path d="M32.515 20.836c-3.574 0-5.28-3.808-3.083-4.555-2.64-.84-4.088 1.87-2.102 3.902-3.084-2.827-8.713.654-14.483.654M41.672 4.86c-.21.583-1.285 1.073-1.028 2.1-.934-.677-2.43-.466-2.71.28 1.73.025 3.738 1.776 3.738 3.505M0 15.237c0-2.268 2.677-4.607 3.706-3.483.03-1.105-1.567-2.17-2.676-.595C1.62 9.09 0 9.093 0 8.333"/><path id="b" d="M1.612 20.836c0-.422-.174-.84-.472-1.14-.3-.298-.718-.472-1.14-.472"/><use transform="matrix(-1 0 0 1 41.672 .01)" xlink:href="#b"/><path d="M18.64 15.136c-1.546 1.182-3.228 2.186-5 2.987-2.17.98-4.51 1.66-6.89 1.638-1.085-.008-2.19-.17-3.164-.65-.974-.477-1.81-1.303-2.138-2.34-.277-.878-.162-1.876.322-2.66.484-.786 1.332-1.34 2.248-1.45.616-.074 1.257.05 1.792.364.535.314.957.822 1.15 1.412.206.624.146 1.333-.176 1.905-.322.574-.905.997-1.552 1.11-.323.055-.66.035-.968-.082-.306-.117-.577-.334-.737-.62-.17-.305-.207-.683-.098-1.016.108-.332.362-.615.68-.76-.1.27-.065.588.094.83.158.24.437.397.725.41.18.007.363-.04.52-.132.158-.09.29-.225.382-.38.186-.313.21-.708.1-1.054-.135-.428-.47-.783-.877-.972-.408-.19-.883-.215-1.318-.103-.58.152-1.088.548-1.386 1.068-.297.52-.384 1.153-.248 1.736.095.408.294.79.56 1.112.267.323.598.59.962.798.727.415 1.568.59 2.403.66 2.148.177 4.307-.327 6.307-1.132 1.83-.736 3.556-1.726 5.115-2.933M0 0h41.672"/><path d="M27.213 8.503c-.558.366-.974.943-1.145 1.588-.102.386-.118.796-.02 1.18.1.387.32.744.638.985.252.192.562.306.878.324.317.017.638-.06.91-.223-.3-.1-.56-.324-.7-.608-.17-.34-.172-.747-.063-1.11.11-.363.322-.688.56-.983.688-.843 1.628-1.47 2.658-1.818 1.03-.35 2.145-.428 3.22-.267 1.21.182 2.38.667 3.34 1.427.958.76 1.702 1.796 2.08 2.96.408 1.247.382 2.642-.133 3.85-.514 1.206-1.526 2.205-2.762 2.643-1.053.374-2.246.332-3.27-.113-1.025-.446-1.87-1.29-2.313-2.316-.437-1.01-.48-2.194-.074-3.216.407-1.023 1.27-1.865 2.317-2.203.765-.248 1.62-.224 2.357.1.735.327 1.337.96 1.59 1.722.194.584.18 1.242-.08 1.8-.258.558-.77 1.003-1.368 1.143-.387.09-.807.052-1.16-.13-.354-.183-.634-.513-.732-.898-.09-.352-.023-.742.18-1.045.2-.303.534-.514.894-.567-.502-.157-1.073-.08-1.516.203-.444.284-.752.77-.82 1.292-.04.31.002.627.112.918.11.29.29.555.512.77.447.434 1.067.668 1.69.695.9.04 1.803-.35 2.41-1.015.606-.665.91-1.592.836-2.49-.048-.586-.252-1.158-.577-1.65-.324-.49-.77-.9-1.284-1.188-1.025-.578-2.305-.655-3.417-.268-1.223.427-2.236 1.402-2.734 2.596-.498 1.195-.48 2.59.023 3.78.534 1.268 1.606 2.293 2.888 2.792 1.282.498 2.755.47 4.025-.058 1.33-.55 2.424-1.637 3.02-2.948.596-1.312.698-2.834.32-4.224-.405-1.494-1.35-2.82-2.58-3.764-1.227-.943-2.727-1.51-4.263-1.702-2.294-.288-4.652.245-6.704 1.308-1.69.876-3.174 2.09-4.72 3.2-1.05.757-2.133 1.468-3.208 2.19-.596.4-1.195.808-1.86 1.08-.627.26-1.306.392-1.985.398-.486.004-.983-.06-1.415-.282-.217-.11-.415-.26-.57-.445-.158-.186-.272-.41-.32-.648-.05-.266-.016-.552.12-.787.135-.235.375-.412.643-.45.202-.03.414.02.58.136.168.117.29.297.332.495.147-.2.23-.447.24-.696.008-.25-.06-.5-.193-.71-.162-.257-.417-.45-.704-.547-.286-.098-.602-.1-.894-.02-.29.082-.558.245-.772.46-.214.212-.375.476-.48.76-.244.657-.174 1.417.163 2.032.412.753 1.193 1.264 2.03 1.456 1.162.268 2.386-.042 3.47-.542.874-.404 1.69-.934 2.418-1.567M0 4.167h41.672"/></g><use xlink:href="#c" transform="matrix(-1 0 0 1 83.343 0)"/><g id="c"><path d="M27.213 8.503c-3.457 2.616-3.08 4.963-5.63 7.1-1.35 1.13-1.985.865-3.06 1.706-.28-.96.132-1.53.117-2.104-.013-.506.888-.77 1.542-1.238M27.213 33.17c-2.873-1.963-2.683-5.834-5.024-7.396-.2.302-.234.608-.21.995-1.26-1.282-2.423-1.125-3.106-1.543.05.476-.532.833-.234 1.308.386.615 1.402.91 1.682 1.238"/></g></g></svg>