<svg xmlns="http://www.w3.org/2000/svg" xmlns:xlink="http://www.w3.org/1999/xlink" width="152.598" height="147.611" viewBox="0 0 40.374864 39.05543"><use xlink:href="#a" transform="matrix(-1 0 0 1 40.375 0)"/><g id="a" fill="none" stroke="#000" stroke-linecap="round" stroke-linejoin="round"><g id="b"><g stroke-width=".125"><path d="M0 28.807h3.052M0 27.466h3.047M.956 26.064c.444 0 .84-.514.84-1.19 0-1.22-1.382-1.827-1.493-2.24"/></g><g stroke-width=".33"><path d="M0 30.15h2.663M2.663 30.15c.17-.018.334-.095.455-.216.12-.122.2-.285.216-.456.013-.126-.008-.256-.06-.373-.05-.117-.13-.22-.232-.298.176.002.352-.07.477-.194.125-.125.198-.3.198-.476s-.073-.35-.197-.475c-.123-.124-.298-.196-.473-.196.1-.078.18-.182.23-.3.05-.115.07-.245.057-.37-.017-.17-.095-.335-.216-.455-.12-.12-.284-.198-.454-.216"/><path d="M3.157 26.124l1.25-.667"/><path d="M1.33 26.124c.56 0 1.1-.606 1.1-1.448 0-1.893-2.43-2.207-2.43-2.9m0 4.348h2.66"/></g><g stroke-width=".5"><path d="M0 30.15c.318 2.433 1.546 4.737 3.39 6.357 1.834 1.613 4.26 2.536 6.704 2.548"/><path d="M1.76 30.15c.284 1.985 1.303 3.857 2.817 5.17 1.515 1.316 3.512 2.06 5.517 2.06"/><path d="M4.408 25.457c5.255.19 3.83 5.57 1.298 5.415-.4-.024-.797-.332-.867-.588 1.467.42 1.776-1.76.385-1.76-.547 0-1.315.2-1.507-.387"/><path d="M1.76 30.15h.903c.17-.02.333-.097.454-.218.12-.12.2-.284.217-.454.013-.126-.006-.255-.055-.37-.05-.118-.13-.222-.228-.3.173-.002.345-.073.467-.195.125-.125.198-.3.198-.476"/></g></g><use xlink:href="#b" transform="matrix(-1 0 0 1 20.188 0)"/><g stroke-width=".125"><path d="M0 16.944c.47-.017.945.125 1.33.396.208.148.392.334.522.553.13.22.206.475.2.73-.006.28-.106.547-.21.807-.103.26-.21.524-.233.802-.023.29.053.59.225.826.173.235.44.4.73.434.298.034.605-.073.83-.27.223-.2.365-.483.407-.78.035-.248.003-.5-.04-.748-.04-.247-.094-.494-.1-.744-.014-.542.2-1.087.584-1.47.382-.385.927-.602 1.47-.583.537.02 1.063.272 1.414.68.35.408.523.966.46 1.5M13.018 19.414c.39-.4.884-.7 1.42-.86.31-.094.64-.142.957-.074.158.034.31.098.44.193s.24.222.306.37c.11.248.095.533.055.8-.04.27-.102.54-.078.81.03.315.18.617.416.83.235.212.55.334.867.336.316 0 .632-.117.87-.325.238-.208.397-.506.436-.82.033-.256-.012-.515-.056-.77-.045-.254-.09-.512-.06-.77.044-.376.257-.726.56-.955.293-.223.67-.333 1.037-.303M16.25 9.574c2 .062 3.212 3.785 3.435 7.48M0 2.397c1.278 2.06 2.422 10.544 2.6 13.907M3.213 17.37c1.583-6.324 6.6-12.87 13.633-15.948M7.616 4.41c.77-1.436 2.14-2.58 3.386-3.227-.514 1.127-.855 3.378-.908 4.143M2.258 8.01c.86-1.8 2.924-4.886 4.696-6.45-.25 2.214-.236 6.123-.655 7.742M1.323 4.042c.346-.878 1.23-2.226 1.82-2.684 0 1.098-.053 2.472-.068 3.53M2.903 18.076l-.132 1.617"/></g><g stroke-width=".33"><path d="M2.356 17.156C4.222 10.018 10.7 2.612 20.186 0M0 16.13c.576-.02 1.156.13 1.65.43.57.345 1.02.89 1.253 1.516.16-.575.516-1.093.996-1.448.478-.356 1.078-.545 1.675-.53.526.012 1.048.183 1.48.484.432.3.773.732.967 1.22M13.185 18.312c.484-.418 1.118-.657 1.758-.664.5-.006 1.008.133 1.398.445.196.156.36.353.468.577.11.225.163.477.147.726-.01.166-.052.33-.086.493-.036.162-.063.33-.047.495.016.163.077.325.188.445.057.06.124.11.2.142.075.032.158.047.24.04.143-.012.276-.09.367-.2.092-.11.143-.25.16-.394.025-.206-.02-.415-.078-.615-.058-.2-.128-.4-.154-.605-.043-.345.04-.7.21-1.003.17-.303.424-.555.714-.745.446-.294.984-.446 1.517-.43M2.77 19.693s.353.846-.064.796c-.542-.066.065-.797.065-.797M16.51 8.966c2.43-.14 3.677 4.48 3.677 6.322M0 0h20.187M0 39.055h20.187M0 0c1.12 2.53 2.828 9.44 3.245 14.533"/><path d="M1.993 6.777C2.916 4.722 5.7 1.087 8.075 0 7.42.912 7.79 6.47 7.35 8.022"/></g><g stroke-width=".5"><path d="M4.408 25.457C8.14 23.45 6.46 11.652 20.188 0M15.78 25.457C9.02 21.75 15.976 11.624 20.186 0M1.07 3.127C1.795 1.69 2.652.93 4.036 0c-.095.896-.305 3.345-.305 3.975M7.58 2.97C8.328 2.11 10.534.514 12.113 0c-.31.593-.996 3.023-1.14 4.612M0 0c.373.91.783 2.3 1.07 3.127"/><path d="M3.732 3.97C4.965 2.205 7.07.5 8.075 0c-.216.535-.357 1.938-.415 2.883M10.973 4.612C13.728 2.362 17.198.65 20.187 0"/></g></g></svg>