<svg xmlns="http://www.w3.org/2000/svg" xmlns:xlink="http://www.w3.org/1999/xlink" width="143.76" height="156" viewBox="0 0 38.03655 41.274989"><use xlink:href="#a" transform="matrix(1 0 0 -1 19.018 41.275)"/><use xlink:href="#a" transform="matrix(1 0 0 -1 -19.018 41.275)"/><g id="a" fill="none" stroke="#000" stroke-width=".125" stroke-linejoin="round" stroke-linecap="round"><path d="M15.548 8.87l-9.5 16.457m-1.81 3.135l-1.9 3.288M0 0h19.018M0 41.275h19.018M0 4.167h19.018M0 37.108h19.018M15.548 8.87c.35-.604.86-1.116 1.467-1.465.605-.35 1.304-.537 2.003-.537M0 33.1c.47 0 .942-.125 1.35-.36.408-.237.753-.58.99-.99M0 34.407c.7 0 1.398-.187 2.003-.537.258-.148.5-.326.717-.528.295-.273.85-.184 1.22.124M4.237 28.462c.307-.526.263-1.08.233-1.288-.235-1.627.76-3.43 1.22-4.29 1.707-3.213 4.17-8.018 5.424-10.288.26-.467.463-1.26.298-1.953"/><path d="M12.107 9.156c.463 1.256.19 2.425-.497 3.738-1.345 2.57-4.485 8.75-5.49 10.65-.3.568-.545 1.247-.62 1.848-.04.307.313.352.548-.065"/><path d="M0 20.287c1.37 0 2.355-.52 2.896-1.512.657-1.204.842-2.987 1.39-4.352.676-1.683 1.77-2.14 2.146-1.917-.468-.983-3.134-1.52-4.14.538C2.292 10.892 0 9.394 0 9.394" id="b"/><use xlink:href="#b" transform="rotate(180 9.51 20.637)"/><circle cx="10.056" cy="8.23" r=".959"/><path d="M10.866 5.7a.96.96 0 0 0-.9.63.96.96 0 0 0-.386-.418.96.96 0 0 0-1.31.35.96.96 0 0 0 .096 1.096.96.96 0 0 0-.556.125.96.96 0 0 0-.35 1.31.96.96 0 0 0 .995.464.96.96 0 0 0-.17.544.96.96 0 0 0 .96.96.96.96 0 0 0 .9-.63.96.96 0 0 0 .387.418.96.96 0 0 0 1.31-.35.96.96 0 0 0-.096-1.096.96.96 0 0 0 .555-.125.96.96 0 0 0 .352-1.31.96.96 0 0 0-.996-.464.96.96 0 0 0 .17-.544.96.96 0 0 0-.96-.96zM3.94 33.466c.47.437 1.15.61 1.86.582 2.15-.085 5.117-1.824 7.696-2.41 1.62-.368 2.807 0 2.9.96.077.79-.327 1.19-.912 1.146-.913-.07-.78-1.276.103-1.266"/><path d="M4.533 30.563c-.965 2.002.476 2.846 1.29 2.806 2.08-.103 6.262-2.326 8.772-2.34 1.294-.007 2.18.585 2.245 1.497.077 1.074-.516 1.622-1.31 1.567-.724-.05-1.07-.555-.983-1.1.1-.624.9-1.086 1.72-.38M5.156 29.484c.316-.463 1.145-.553 1.356-.6 1.51-.34 2.066-1.056 2.915-2.13 1.125-1.423 4.828-6.91 6.483-9.262 1.082-1.536 2.674-.715 2.85.554.135.98-.132 2.514-.435 2.985"/><path d="M4.533 30.563l.623-1.08m1.52-2.63l10.003-17.33M16.68 9.524c.235-.408.58-.752.988-.988.408-.236.88-.362 1.35-.362M6.675 26.853c-.362.687.21.82.532.703.586-.215 1.26-.944 1.69-1.464.96-1.158 5.486-7.753 6.484-9.03 1.386-1.773 3.804-1.11 3.957 1.162.084 1.255-.02 2.61.444 2.74"/></g></svg>