<svg xmlns="http://www.w3.org/2000/svg" xmlns:xlink="http://www.w3.org/1999/xlink" width="148.541" height="148.541" viewBox="0 0 39.301379 39.301381"><use xlink:href="#a" transform="matrix(-1 0 0 1 39.3 0)"/><g id="a" fill="none" stroke="#000" stroke-width=".25" stroke-linecap="round" stroke-linejoin="round"><circle cx="11.958" cy="3.038" r="1.778"/><circle cx="7.089" cy="17.812" r="1.778"/><circle cx="12.41" cy="35.302" r="1.778"/><path d="M19.65 17.17c-.465 0-.927-.19-1.256-.52-.33-.33-.52-.792-.52-1.257 0-.465.19-.928.52-1.257.33-.33.79-.52 1.257-.52M10.574 20.165c-.815-.737-1.36-1.817-1.3-2.81.347-5.664 10.377-8.283 10.377-13.472"/><path d="M10.872 20.198c-1.607-.595-3.486-.397-4.933.52-1.078.684-1.904 1.737-2.37 2.924-.468 1.187-.582 2.5-.393 3.762.26 1.733 1.11 3.393 2.446 4.526 1.337 1.133 3.164 1.704 4.892 1.418 1.193-.198 2.316-.795 3.147-1.673M19.65 9.404c0 .6.98 1.92 1.58 2.916 2.076 3.46.896 5.886-1.584 8.53M16.727 24.29c-.46.783-.763 1.67-.68 2.566"/><path d="M16.147 27.22c-.406-.66-1.05-1.168-1.784-1.412-.735-.244-1.555-.22-2.275.064-.855.34-1.556 1.05-1.883 1.91-.328.858-.278 1.854.135 2.677M3.182 35.84c2.476 2.075 5.668 3.352 9.123 3.46 2.564.083 5.174-.52 7.346-1.885M21.152 36.262c1.554-1.476 2.463-3.487 3.692-5.242.357-.51.75-1.007 1.27-1.352.257-.172.545-.304.85-.368.304-.063.625-.058.92.036.26.08.496.228.683.423.187.195.324.437.394.7M1.263 21.803c.393.246.72.597.94 1.006.22.408.33.874.315 1.338-.024.877-.51 1.728-1.255 2.193M1.263 21.803c.362-2.498 1.427-4.89 3.04-6.83 1.592-1.913 3.68-3.364 5.897-4.493 2.116-1.077 4.444-1.932 6.035-3.696 1.41-1.562 2.08-3.765 1.778-5.848"/><path d="M1.263 26.34c.218 2.804 1.457 5.516 3.432 7.516 1.974 2 4.67 3.273 7.47 3.527 2.05.186 4.16-.17 5.984-1.12M19.65 35.278c.795-.654 1.46-1.473 1.897-2.404.44-.93.647-1.975.56-3-.144-1.687-1.1-3.26-2.456-4.272"/><path d="M16.727 24.29c-1.463-.334-3.034-.293-4.42.28-1.388.57-2.57 1.705-3.043 3.128-.275.826-.307 1.744-.012 2.563.294.82.93 1.527 1.743 1.836.44.167.924.218 1.39.144.465-.073.91-.27 1.277-.565M0 38.693c.716-.393 1.378-.882 1.965-1.45.434-.42.826-.883 1.17-1.38M0 37.547c.362-.41.69-.848.983-1.31.34-.54.63-1.113.865-1.708-.432-.453-.81-.957-1.123-1.498-.306-.53-.55-1.097-.725-1.684M0 20.586C0 14.316 3.297 7.474 0 4.96M0 .983c1.03 0 2.055.425 2.786 1.153.725.724 1.152 1.738 1.162 2.762.01 1.025-.397 2.047-1.11 2.784.4-.994 1.22-1.81 2.215-2.208.62-.248 1.296-.335 1.964-.344.67-.01 1.336.055 2.003.102 1.092.077 2.193.103 3.28-.04 1.084-.14 2.16-.457 3.093-1.028 1.206-.737 2.147-1.897 2.62-3.228"/></g><g fill="none" stroke="#000" stroke-width=".25" stroke-linecap="round" stroke-linejoin="round"><path d="M19.646 20.85c-1.088 1.162-2.224 2.257-2.92 3.44M19.65 25.602c.863-.644 1.875-1.074 2.924-1.313M18.15 36.262c.53-.277 1.038-.603 1.5-.984M19.65 37.415c.536-.336 1.044-.718 1.502-1.153"/></g></svg>