<svg xmlns="http://www.w3.org/2000/svg" xmlns:xlink="http://www.w3.org/1999/xlink" width="126.5" height="159" viewBox="0 0 33.469799 42.068719"><use xlink:href="#b" transform="matrix(1 0 0 -1 0 42.068719)"/><path d="M33.47 15.643c-1.644 0-2.977-1.332-2.977-2.976S31.826 9.69 33.47 9.69M0 4.3h33.47M0 0h33.47M0 9.69c1.644 0 2.976 1.333 2.976 2.977S1.644 15.643 0 15.643m0 1.753c9.5-2.88 10.204-7.672 16.298-9.578 5.61-1.755 13.554 1.563 15.584-2.13C29.387 12.67 16.277 17.982 0 19.385v.964c5.847 0 26.558-.69 33.47-2.952" fill="none" stroke="#000" stroke-width=".5" stroke-linecap="round" stroke-linejoin="round" id="b"/></svg>