<svg xmlns="http://www.w3.org/2000/svg" xmlns:xlink="http://www.w3.org/1999/xlink" width="119.947" height="150.933" viewBox="0 0 31.735879 39.934301"><use xlink:href="#a" transform="matrix(1,0,0,-1,0,39.934293)"/><g id="a" fill="none" stroke="#000" stroke-linecap="round" stroke-linejoin="round" stroke-width=".25"><path d="M31.736 0H0m0 4.1h31.736"/><path d="M1.025 19.306l7.554-7.554m-.365-.364L.298 19.306"/><path d="M16.53 18.912c2.925-2.294 2.678-4.81 4.967-7.55 2.016-2.415 5.574-3.11 5.938-2.962.148.364-.547 3.922-2.96 5.938-2.74 2.29-5.258 2.043-7.552 4.968M0 19.306h.298m.727 0h13.55m2.348 0h14.813M16.53 18.912c-.05-.233-.187-.448-.378-.59-.19-.144-.435-.215-.674-.197-.278.02-.545.166-.715.388-.17.223-.24.518-.187.793M8.215 11.388c-.183.096-.392.14-.598.128-.206-.012-.408-.08-.578-.198-.172-.116-.31-.28-.396-.467-.086-.186-.12-.397-.1-.602.025-.214.11-.42.243-.59.134-.168.316-.297.52-.37-.395-.31-.636-.804-.637-1.305 0-.5.237-.998.63-1.31.43-.343 1.034-.453 1.557-.283.523.17.948.616 1.093 1.147.29-.442.787-.742 1.314-.796.526-.052 1.073.142 1.447.516.375.375.57.92.516 1.447-.054.526-.354 1.022-.796 1.313.477.13.89.486 1.088.94.2.452.183.995-.044 1.435-.254.496-.77.846-1.324.9-.554.053-1.128-.192-1.472-.63-.105.302-.342.553-.635.678-.293.124-.638.118-.927-.015-.28-.13-.505-.377-.605-.67-.1-.293-.074-.626.07-.9"/></g></svg>