<svg xmlns="http://www.w3.org/2000/svg" xmlns:xlink="http://www.w3.org/1999/xlink" width="206.193" height="180.67" viewBox="0 0 54.555192 47.802175"><use xlink:href="#a" transform="matrix(-1 0 0 1 54.555 0)"/><g id="a" fill="none" stroke="#000" stroke-width=".2" stroke-linecap="round" stroke-linejoin="round"><path d="M.33 47.802c2.107-7.1 7.59-11.575 13.687-12.43 4.88-.684 10.32 2.952 12.635 7.91"/><path d="M0 46.612c1.852-6.712 9.154-11.56 9.587-16.64C10.317 21.406 0 17.695 0 11.625M15.09 43.196c.116-.244.17-.517.154-.787-.015-.27-.1-.537-.245-.766-.145-.23-.347-.42-.584-.55-.237-.13-.507-.2-.777-.2-.272 0-.542.07-.778.2-.237.13-.44.32-.584.55-.144.23-.23.495-.245.765-.015.268.04.542.155.786"/><path d="M27.278 43.174c-1.167-3.514-8.578-16.76-15.545-10.86 5.293-5.105.048-9.656 1.385-11.982-1.15.46-2.272 1.617-2.412 3.206C9.818 18.91.14 16.946.42 10.588M.48 47.802h26.798M25.64 7.97H1.324M26.944 26.68c.17-2.3-2.333-9.617.334-9.617M20.66 24.653c.242-.343.658-.557 1.08-.555.42 0 .833.218 1.075.562.232.332.3.774.175 1.16-.123.385-.434.706-.816.84M26.418 43.306c-2.385.96.66 2.926.727 4.496M.42 10.588C2.976 8.348 0 6.744 0 4.778M0 0h27.278M0 29.24c.422-.01 1.702.066 2.28.15M.615 27.68c1.308 0 4.593.172 5.8.915-.48.76-1.34 2.083-1.654 2.91-1.157-.133-3.586-.265-4.76-.265M2.017 8.53h9.62c-2.215.86-1.658 3.447.892 3.404 4.066-.068 6.145-3.438 12.793-3.438"/><path d="M27.278 4.113c-.445 2.22-3.318 7.55-6.87 9.91.14-1.308-.822-2.838-2.13-3.36.247 1.286-.626 3.45-1.178 5.962m-.4 2.748c-.038.71-.02 1.432.084 2.155.638 4.465 4.648 7.29 8.298 7.527"/><path d="M20.616 17.864c-3.36-1.88-6.162-1.594-8.926-.306 4.475-1.85 5.76 5.15 9.294 4.327 1.267-.295 1.122-2.112.49-2.518-1.157-.74-2.34.377-1.64 1.31.43.57 1.274.09.9-.355M6.012 14.638c1.244-1.722 3.46.206 2.436 1.375-.85.97-2.402.44-2.037-.68.3-.913 1.41-.413 1.094.217M0 33.307c.294 1.218.75 2.397 1.356 3.494.61 1.106 1.37 2.13 2.252 3.033M4.383 40.582c2.53 2.225 5.886 3.49 9.256 3.49 3.848 0 7.668-1.67 10.282-4.496M24.894 38.402c.48-.647.903-1.335 1.266-2.053.487-.968.863-1.99 1.118-3.044M.454 31.245c.15 1.545.57 3.063 1.234 4.465.607 1.282 1.42 2.466 2.394 3.495"/><path d="M4.91 39.992c.957.83 2.03 1.524 3.182 2.054 1.293.597 2.682.987 4.096 1.15M15.09 43.196c1.496-.17 2.963-.598 4.318-1.255 1.49-.72 2.842-1.72 3.97-2.932M26.898 25.465c-.6-1.74-1.544-3.358-2.764-4.734-2.212-2.496-5.342-4.16-8.648-4.6-3.307-.44-6.763.348-9.55 2.18M0 26.766c.36-1.437.935-2.82 1.702-4.087.31-.512.65-1.003 1.01-1.48.343-.453.705-.893 1.016-1.37.185-.285.352-.582.498-.89M5.11 19.91c-1.25 1.06-2.302 2.352-3.086 3.79-.93 1.703-1.48 3.61-1.603 5.546M4.823 17.485c.205-.603.343-1.228.412-1.86.12-1.1.025-2.237-.38-3.267-.592-1.516-1.87-2.75-3.406-3.29"/><path d="M27.278 13.752c-1.242.003-2.482.32-3.572.917-1.323.723-2.418 1.857-3.095 3.205M19.845 21.883c.044.465.13.925.26 1.373.137.483.323.95.554 1.397M22.174 26.66c.45.42.952.782 1.49 1.08.506.28 1.045.5 1.6.658"/><path d="M26.434 26.66c.06.317-.025.66-.226.913-.13.165-.302.29-.472.412-.17.123-.342.248-.47.413-.073.093-.13.197-.165.31-.033.11-.042.232-.018.347.03.15.117.285.226.393.11.107.24.19.377.258.274.14.575.232.813.424.16.13.287.3.363.492M26.434 26.66c-.355-1.32-.913-2.585-1.648-3.737-.863-1.35-1.97-2.547-3.25-3.51M26.86 30.622c-.057 1.216-.28 2.423-.664 3.578-.41 1.24-1.005 2.418-1.756 3.486"/><g id="d" transform="translate(0 -.116)"><circle r=".293" cy="37.71" cx="13.639" id="b"/><use transform="translate(1.113 1.925)" id="c" xlink:href="#b"/><use transform="translate(-2.226)" xlink:href="#c"/></g><use xlink:href="#d" transform="rotate(-15 42.547 10.672)"/><use xlink:href="#d" transform="rotate(15 -15.302 7.56)"/><use xlink:href="#d" transform="translate(-9.4 -4.656)"/><use xlink:href="#d" transform="translate(-8.573 -14.156)"/><use xlink:href="#d" transform="rotate(-15 -26.18 22.21)"/><use xlink:href="#d" transform="matrix(.53773 .53773 -.53773 .53773 36.25 -5.482)"/><use xlink:href="#d" transform="translate(13.626 -22.998)"/><use xlink:href="#d" transform="rotate(45 44.56 28.118)"/><use xlink:href="#d" transform="rotate(60 34.972 19.346)"/><use xlink:href="#d" transform="rotate(-30 -26.075 35.488)"/><use xlink:href="#d" transform="translate(-13.64 -20.93)"/><path d="M6.625 18.815c.388-.24.787-.462 1.197-.662.422-.207.855-.39 1.296-.55M9.69 17.408c.643-.202 1.3-.354 1.964-.457.706-.108 1.42-.16 2.135-.155M6.012 14.638c-.036-1.177-.376-2.343-.976-3.356-.705-1.188-1.77-2.16-3.02-2.753M5.4 17.788c.136-.304.25-.618.344-.938.11-.39.19-.79.233-1.19"/></g></svg>