<svg xmlns="http://www.w3.org/2000/svg" xmlns:xlink="http://www.w3.org/1999/xlink" width="256.519" height="497.534" viewBox="0 0 67.87067 131.63932"><use xlink:href="#a" transform="matrix(-1 0 0 1 67.87067 0)"/><g id="a" fill="none" stroke="#000" stroke-linecap="round" stroke-linejoin="round"><g stroke-width=".132"><path d="M15.216 36.212l2.256 1.318M23.648 41.038l3.85 2.247M34.004 54.513v4.416M17.087 73.312l2.678-1.425M15.537 85.48l2.172 1.277M23.63 90.237l3.982 2.336M8.148 110.865H0M9.452 111.777H0M9.942 113.6H0M6.328 120.852l.026-5.426M5.468 115.426V113.6h-.912v-1.823h-.88v-1.825M7.26 43.924c.394-1.043.858-2.06 1.388-3.04.372-.688.775-1.358 1.21-2.008M15.024 28.87c.323-.677.68-1.337 1.065-1.98.912-1.518 1.998-2.933 3.228-4.208M7.236 65.072c.326.94.685 1.87 1.076 2.786.247.58.506 1.154.78 1.722M9.09 89.106c-.275.55-.534 1.107-.778 1.67-.403.93-.762 1.88-1.076 2.842M5.244 13.682c.45-.14.9-.267 1.357-.385.814-.21 1.636-.386 2.463-.527"/></g><g stroke-width=".265"><path d="M0 109.952h8.148M0 115.426h9.09M9.06 110.865h-.912v-.913H7.3l-.064-6.095M7.26 43.924c.242-5.814 2.448-11.53 6.175-16 1.688-2.025 3.678-3.798 5.883-5.242-1.466 2.29-2.383 4.93-2.653 7.634-.242 2.426.035 4.902.807 7.214-2.017.422-3.958 1.205-5.702 2.3-1.728 1.087-3.262 2.48-4.51 4.094z"/><path d="M34.038 18.31c-3.595-.003-7.168 1.473-9.713 4.01-2.544 2.54-4.03 6.11-4.033 9.704-.005 3.275 1.21 6.54 3.356 9.014-2.828-.555-5.83-.188-8.442 1.03s-4.82 3.282-6.215 5.805C7.158 51.196 6.79 55.295 8 58.893c1.212 3.596 3.987 6.636 7.46 8.17 3.47 1.535 7.586 1.54 11.062.016 3.476-1.526 6.26-4.558 7.482-8.15M7.236 65.072v28.546c1.436-1.913 3.248-3.543 5.304-4.767 1.603-.954 3.353-1.663 5.17-2.093-.736-2.325-.977-4.805-.704-7.228.305-2.717 1.26-5.358 2.76-7.643-2.397-.21-4.75-.91-6.87-2.044-2.192-1.173-4.133-2.81-5.66-4.77z"/><path d="M7.236 103.857c0-4.002 1.835-7.968 4.886-10.56 3.127-2.656 7.474-3.812 11.507-3.06-2.358-2.892-3.46-6.772-2.978-10.472.42-3.228 2.033-6.287 4.457-8.46 2.423-2.174 5.64-3.444 8.894-3.512M0 22.385c1.267-1.796 2.66-3.502 4.168-5.103 1.522-1.618 3.16-3.127 4.895-4.512H0"/><path d="M3.618 45.06c.012-4.977 1.267-9.946 3.618-14.33 2.58-4.813 6.48-8.91 11.158-11.723 4.678-2.814 10.124-4.337 15.584-4.36"/><path d="M3.676 109.952L3.618 45.06M0 7.297h34.004M0 32.637c2.267-5.657 5.897-10.762 10.494-14.762 5.066-4.408 11.3-7.46 17.89-8.754M0 9.12h28.383M0 126.268h.912l7.192-7.15.044-3.692h2.706V113.6h-.912v-1.823"/></g><g stroke-width=".529"><path d="M9.942 111.777h-.85l-.032-.912M0 0h34.004M0 131.64h34.004M9.857 38.876c.6-2.417 1.574-4.74 2.876-6.864.678-1.107 1.445-2.16 2.29-3.143-.227 1.18-.33 2.384-.304 3.586.024 1.265.19 2.528.496 3.756-1.013.327-2 .734-2.947 1.217-.838.425-1.644.91-2.413 1.446zM34.03 20.09c-2.102-.008-4.204.552-6.024 1.603-1.82 1.052-3.355 2.593-4.398 4.418-1.55 2.71-1.977 6.04-1.162 9.054.815 3.013 2.86 5.673 5.565 7.233l-1.09 1.893c-3.266-1.883-7.45-2.072-10.87-.49-3.42 1.58-5.988 4.888-6.67 8.595-.593 3.222.23 6.68 2.212 9.29 1.982 2.61 5.09 4.33 8.354 4.625 3.264.295 6.63-.842 9.048-3.054 2.417-2.212 3.847-5.466 3.84-8.743h1.17M9.09 69.58v19.526c1.048-.866 2.18-1.63 3.376-2.276.985-.532 2.013-.984 3.07-1.35-.394-1.68-.54-3.415-.43-5.134.158-2.45.838-4.863 1.98-7.034-1.61-.3-3.18-.825-4.647-1.556-1.195-.595-2.32-1.327-3.35-2.176zM9.09 103.857c-.015-3.26 1.368-6.503 3.73-8.748 1.865-1.773 4.313-2.92 6.868-3.218 2.555-.3 5.2.253 7.424 1.547l.985-1.707c-2.873-1.718-4.958-4.7-5.585-7.986-.627-3.288.214-6.827 2.253-9.482 2.173-2.828 5.673-4.59 9.24-4.65M9.06 110.865l-.005-7.008M0 13.682h5.244c-.87.79-1.71 1.617-2.514 2.475-.96 1.023-1.87 2.09-2.73 3.2M9.942 111.777h24.062"/></g></g></svg>