<svg xmlns="http://www.w3.org/2000/svg" xmlns:xlink="http://www.w3.org/1999/xlink" width="187" height="65" viewBox="0 0 49.523048 17.195513"><use xlink:href="#b" transform="matrix(-1 0 0 1 49.523 0)"/><g id="b"><use xlink:href="#c" transform="rotate(180 12.38 10.298)"/><path d="M9.2 15.23c0-.34.27-.54.55-.42-.04.3-.2.45-.54.43zm-.65-.65c0-.36.25-.6.63-.52 0 .38-.27.57-.63.52zm-.72-.7c-.02-.47.37-.9.9-.77-.06.48-.44.85-.9.78zm-.77-.9c0-.63.45-1.06 1.02-.9-.04.58-.54.97-1.02.9zm-.74-.86c-.1-.65.43-1.08.87-1 .06.57-.34.97-.88 1zm-.7-.8c-.1-.46.2-.96.68-.94.12.52-.26.97-.7.95zm-.98-.56c-.1-.46.17-.8.6-.82.1.36-.22.78-.6.82zm-.85-.13c-.25-.3-.1-.9.23-1.1.2.32.07.97-.24 1.1zm-.84-.2c-.27-.14-.3-.54-.08-.8.22.2.3.58.08.8zm-.73.13c-.14-.12-.18-.32-.1-.45.17.06.2.33.1.46zm-1.9 1.4c1.1-.98 2.74-1.22 3.75-.62 1.9 1.12 3 3.54 4.95 4.42 1.02.46 2.66.4 3.26-.3.17-.16.03-.38-.2-.26-1.87.75-2.2-3.05-4.94-5.33C5.5 8.5 2.02 8.37.04 11.72c-.18.3.15.48.3.23zm3.35-4.2c-1.65.14-2.07-1.93-.5-2.93 1.56-1 4.17-.96 5.7 1.34.3.42.6.36 1.02.18 1.58-.73 2.75.53 2.25 2.44-.32 1.24-1.28 1.8-1.23 2.6.02.28.26.47.6.44-.3-.4.38-.92.7-.82.33.1.42 1.2-.38 1.54-.6.24-1.14-.04-1.22-.74-.13-1.08.93-1.65 1.24-3.12.2-.92-.66-1.5-1.96-.38-.95.8-1.75 1-2.23.56-.93-.9-.62-4.66-3.74-4.02-1.14.24-1.5 1.2-1.3 1.8.18.5.9.7 1.2.22-.53-.18-.35-.84.24-.86.78.06 1.02 1.48-.4 1.73zm5.77-3.4c.76-.06.88 1.1.08 1.2-.78.06-.97-1.1-.08-1.2zm-.56 7.1c.27-.62.6-1.7.58-2.57-.03-.17.3-.36.35-.15.04.85-.32 2.3-.65 3-.07.14-.35-.2-.3-.3zM6.7 14.38c-.4.2-.8.4-1.24.5-.17.06-.38-.24-.1-.3.4-.1.8-.3 1.16-.5.1-.07.27.2.18.3zm-.6 1.34c.37.02.6-.2.67-.54.3 1.13-1.34 1.66-2.4.97-1.4-.97-1.47-2.15-2.7-2.15-.75 0-1.5.6-1.5 1.1.78.2 2.36.18 2.88.1.16-.03.15.26.05.26-.64.17-2.38.2-3.13-.05.06-1.6 1.2-2.8 2.58-2.6 2.1.28 2.28 2.75 3.54 2.9z" id="c"/></g></svg>