<svg xmlns="http://www.w3.org/2000/svg" xmlns:xlink="http://www.w3.org/1999/xlink" width="414.375" height="422.875" viewBox="0 0 109.63664 111.88561"><g><g id="a" fill="none" stroke="#000" stroke-linecap="round" stroke-linejoin="round"><path d="M0 0h109.637" stroke-width=".5"/><path d="M0 3.748h109.637" stroke-width=".25"/></g><use xlink:href="#a" transform="translate(0 71.217)"/><use xlink:href="#a" transform="matrix(1 0 0 -1 0 111.886)"/><use xlink:href="#a" transform="matrix(1 0 0 -1 0 41.043)"/></g><g><g id="c"><path d="M11.057 46.52c-1.582 0-3.47.95-3.47 3.412 0 2.85 2.584 4.93 2.584 6.46 0 .89-.033 2.347.643 2.485h-3.49c-.69 0-.465 1.657.164 1.657H9.21v1.39H7.52c-.298 0-.024 1.344.232 1.492.19.11.777.286 1.553.413.243.818.956 2.094 1.752 2.094l.308-.477-.077-18.382zM4.14 50.992c-1.657 0-2.86 2.194-3.013 3.015-.217 1.154 2.08 3.798 3.147 3.48.638-.192-.027-1.18 1.126-1.823.924-.514 2.717.232 3.48 2.783.077.26.76.264.827-.232-.33-4.307-2.98-7.223-5.566-7.223z" stroke-linecap="round" stroke-linejoin="round" id="b"/><use transform="matrix(-1 0 0 1 22.115 0)" xlink:href="#b"/></g><use xlink:href="#c" transform="translate(36.546)"/><use xlink:href="#c" transform="translate(73.092)"/></g><g><use xlink:href="#f" transform="translate(-5.064 71.03)"/><path id="f" d="M78.6 27.08c.876 2.61-1.568 3.72-3.046 2.625-.525-.39-1.047-.134-.89.61.87 4.102 5.346 4.31 8.387 3.794.694-.118 1.04-.885.376-.985-.937-.14-2.905-.562-2.858-3.42.018-1.093 1.492-2.274 2.998-1.827 1.265.375 1.625 2.078 1.36 2.53-.47.796-.115 1.59.842 1.265 2.624-.89 5.576-5.763 6.466-8.012.287-.724-.043-1.27-1.124-1.31-2.437-.095-3.795-2.156-3.842-4.31-.014-.618 1.073-.922 1.64-.564 4.076 2.577 6.802-2.978 11.29-4.685 3.1-1.177 6.28-.983 8.622.75.49.363.11 1.13-.703.89-2.858-.843-6.98.614-7.73 5.623-.33 2.19 2.014 3.89 3.373 3.514.67-.185 1.24.618.422.89-.844.282-3.588 3.15-6.84 1.453-.465-.242-.89-.335-1.266.234-2.015 3.046-5.81 6.794-8.06 8.81-.544.487-1.264.842-2.154.842-.89 0-6.794 0-7.87-.234-1.013-.22-4.288-2.106-4.78-4.592-.852-4.304 2.9-6.263 5.107-4.592zM96.78 6.748c-1.08 3.233-4.068 7.382-8.2 8.902-4.958 1.823-8.996.702-12.604 2.435-2.23 1.07-2.202 3.56-2.062 4.217.14.656-.432.905-.937.516-3.514-2.718-4.31-4.92-1.967-7.92.376-.48.476-.837-.328-2.06-2.8-4.26.328-7.403 4.45-6.934.34.038.606.605.14 1.124-2.013 2.25-.026 5.113 2.578 6.278 4.292 1.92 8.95 1.64 10.355.422.626-.543.185-.615-.328-.61-5.332.06-8.106-3.747-6.513-6.465.604-1.03 2.635-.948 3.467-.234.657.56.883 2.34.19 2.67-.89.42-1.547.702-.938 1.452.61.75 4.223 1.467 6.42.562 2.64-1.088 3.794-3.14 3.98-4.59-.046-.564 1.594-.892 2.11-.564z"/></g><g><use xlink:href="#e" transform="rotate(180 31.975 56.15)"/><path d="M22.363 5.558c-.257.013-.514.062-.795.21-1.723.73-3.61.432-3.976.266-.364-.165-.596.298-.43.597.165.3.53.862.596 1.392.066.53-.332 1.756-.365 2.253-.033.497-.927 1.325-.927 1.988 0 .662-.994 4.108-1.193 4.505-.2.398-.43.928-.33 1.26.098.33.628.596 1.026.297.396-.298.96.034 1.225.597.265.563 2.285 3.578 3.81 3.645h.013c.128 1.65-1.994 3.212-4.088 3.743-.618.157-1.127.365-1.36-.1-.165-.33-.595-.76-.694-1.16-.1-.396-.413-.353-.498.1-.66 3.56-3.802 4.432-4.248 2.568.01-1.05.02-2.047.1-2.9.79-1.105 2.032-2.732 3.404-3.36.42-.19.22-.444-.093-.538-.866-.258-2.417-1.25-2.904-2.226-.1-.197-.438-.22-.54-.047-.326.56-.537 1.414-.67 2.34-1.214 2.268-.96 6.2-1.602 7.734-1.17.563-2.014 1.243-2.39 1.266-.374.024-.374 1.406-.116 1.663.258.257.612.665.586.96-.022.233-.586 1.24-.797 1.546-.208.3.356 1.246 1.5 1.054.892-.15 1.924-1.093 2.014-1.452.118-.47.774-.703 1.266.187.13.234.513.03.515-.304.01-1.137-.486-1.58-.43-2.108.05-.458.08-.928.102-1.4l.183.06c.013.088.036.175.082.26 3.015 4.074 8.466 7.31 18.873 3.186 7.537-2.987 10.01-9.553 16.477-11.436 2.908-.847 6.79.2 7.785 2.882.268.723.73.63.862.133s.96-1.392 1.292-1.325c.33.066.63.464.73.762.098.298.297 1.755.098 2.32-.2.562-.894.794-1.26 1.19-.363.4.133 1.028.465 1.095.33.065 1.688-.167 2.053-.432.364-.265.626-.023.265.43-.954 1.2-3.892 1.466-5.433.498-.464-.265-.696-1.36-.83-1.59-.13-.233-.363-.497-.53-.2-.165.3-.628.995-1.125.862-.497-.132-.564-.862-.696-1.26-.133-.397.398-1.59.563-1.887.166-.298 1.988-.96 2.352-.795.364.166.67-.41 0-.662-3.545-1.325-4.705-.86-6.295 1.425-.268.384-.862.828-1.49.662-.63-.166-.63.265-.597.86.033.598 1.192 1.79.033 2.288-.356.152-.53.596-.397.927.2 1.425 1.033 2.76 4.34 4.24 5.135 2.3 10.768-.53 12.987-4.704.3-.76.73-.628 1.027-.297.298.33.862.365 1.16.795.298.43.563.166.63-.53.132-3.777-.696-6.792-3.148-8.68-.633-.487.822-1.748-.332-2.253-3.413-1.49-7.554-1.093-10.337.033-1.29.332-.463-.696-1.722-.663-1.26.034-3.313 1.392-3.776 1.723-.464.332-.895.067-.63-.63.265-.695 4.804-4.637 6.66-5.267 1.126-.695.496-.794-.034-1.357s-.188-.767.33-1.36c2.387-2.715 4.805-3.874 7.025-4.37 1.39-.313 2.717.098 2.85.827.132.73-.962.596-1.658 1.524-.695.928-.208 3.042 1.69 3.313 2.053.293 3.48-1.037 3.346-3.48-.193-3.527-4.516-3.766-7.618-3.312-2.518.368-6.163 2.485-7.39 3.48-.562.33-1.622.926-1.788 1.523-.165.596-.894.53-1.027.232-.132-.298-.86-.895-1.126-1.193-.264-.298-.43-.398-.96.066s-1.954 3.015-2.054 3.81c0 .862-1.59 2.65-2.02 3.346-.3.43-.564.1-.696-.3-.265-.794-.2-3.908-.365-4.77-.497-.828-3.346-3.346-4.34-4.075-.994-.73-3.91-1.987-5.467-2.186-1.26-.266-5.367-.3-5.93-.3-.28 0-.538-.024-.795-.012zm4.547 1.387c.687.012 1.395.108 2.178.282 2.22.493 5.5 2.485 6.494 4.572.397.728-.994 1.457-1.292.827-.298-.63-.828-.397-1.59.133-.762.53-.398 1.027.033 1.358.43.33 2.418 3.115 2.518 6.063.034.863 0 1.227-.43 1.392-.43.166-2.42-.298-2.915-.298-.497 0-1.094.464-.53.83.563.363 1.59 1.556 1.69 1.854.1.298.264 1.425-.4 1.027-.66-.398-1.423-.133-1.854-.133-.43 0-1.026.133-.76.63.264.497.795 1.317.596 2.187-.63 2.748-4.87 6.227-11.132 6.492-2.477.105-6.084-1.242-7.427-3.81.116-.024.23-.055.337-.1.427-.175.724.114 1.26.3 1.92.66 5.863.396 7.818-.796.282-.173.545-.18.298-.43-.148-.15-.402-.475-.497-.63-.11-.182-.036-.535.2-.696 2.336-1.61 2.88-4.008.42-5.865.268-.216.517-.4.837-.23 1.624.992 5.633.065 7.057-1.757.365-.397.33-1.06-.2-1.093-.53-.033-.164-.597 0-.83 2.287-3.51.2-6.26-2.815-7.287-.662-.166-.795.265-.497.695.597.895 1.06 1.657.895 2.883-.166 1.226-1.39 2.12-1.955 1.888-.563-.232-.165-1.424-.53-1.888-.364-.464-.828-.398-1.06.198-.232.762-2.584 1.922-3.81.1-1.303-1.937-.663-3.843-.398-4.406.265-.564.895-.133 1.226.397.33.53.53.265.497-.464-.033-.727.96-2.218 2.253-2.715 1.26-.485 2.343-.7 3.487-.68z" id="e"/></g></svg>